<control>label_cc74=CutOff label_cc71=Resonance set_hdcc74=0.5 set_hdcc71=0.5 label_cc76=Vibrato Rate label_cc77=Vibrato Depth label_cc78=Vibrato Delay set_hdcc76=0.32 set_hdcc77=0.5 set_hdcc78=0.1 set_cc16=127 label_cc16=Castanet set_cc17=127 label_cc17=No Wave set_cc18=127 label_cc18=No Wave set_cc19=127 label_cc19=No Wave
<group>lovel=1 hivel=127 volume=12 amp_velcurve_0=0 amp_velcurve_1=1 amp_velcurve_127=1 pitch_oncc136=0 fil_type=lpf_2p cutoff=11025 cutoff_cc74=6912 cutoff_curvecc74=1 cutoff_cc133=8890 cutoff_curvecc133=133 eg4_cutoff=-4067.7165354 fil2_type=lpf_4p cutoff2=22050 eg4_sustain=4 resonance_oncc71=40 resonance_curvecc71=1 resonance=5.6692913 resonance_oncc131=0 group_amplitude=100 volume_curvecc131=201 volume_oncc131=23.015873 pan_keytrack=0 pan_oncc136=0 eg9_sustain=2 eg9_time1=0 eg9_time1_oncc78=5 eg9_level1=0 eg9_time2=0 eg9_time2_oncc78=5 eg9_level2=1 eg9_level2_oncc77=-2 lfo9_wave=1 lfo9_delay=0 lfo9_delay_oncc78=5 lfo9_fade=0 lfo9_fade_oncc78=5 lfo9_freq=0 lfo9_freq_oncc76=20 lfo9_pitch=0 lfo9_pitch_oncc77=555 lfo9_pitch_curvecc77=77 eg9_pitch_oncc77=3.5
<region>sample=../Sample/Wave87.wav lokey=0 hikey=0 pitch_keycenter=66 tune=3045 loop_mode=one_shot pan=0 eg2_cutoff=4864 eg2_sustain=4 eg2_time1=0 eg2_time2=0 eg2_time3=0.0489896 eg2_time4=0 eg2_time5=0 eg2_level1=0 eg2_level2=1 eg2_level3=0.9055118 eg2_level4=0.9055118 eg2_level5=1 eg3_amplitude=100 eg3_sustain=4 eg3_time1=0 eg3_time2=0 eg3_time3=0.0884488 eg3_time4=0.5679115 eg3_time5=0.5679115 eg3_level1=0 eg3_level2=1 eg3_level3=0.9117225 eg3_level4=0 eg3_level5=0 amplitude_cc16=83.4645669 ampeg_attack=0 ampeg_release=0.5679115 eg4_time1=0 eg4_time2=0 eg4_time3=0.0884488 eg4_time4=0.5679115 eg4_time5=0.5679115 eg4_level1=1 eg4_level2=1 eg4_level3=1 eg4_level4=1 eg4_level5=1
<region>sample=../Sample/Wave87.wav lokey=1 hikey=1 pitch_keycenter=66 tune=2995 loop_mode=one_shot pan=0 eg2_cutoff=4864 eg2_sustain=4 eg2_time1=0 eg2_time2=0 eg2_time3=0.0489896 eg2_time4=0 eg2_time5=0 eg2_level1=0 eg2_level2=1 eg2_level3=0.9055118 eg2_level4=0.9055118 eg2_level5=1 eg3_amplitude=100 eg3_sustain=4 eg3_time1=0 eg3_time2=0 eg3_time3=0.0865147 eg3_time4=0.555493 eg3_time5=0.555493 eg3_level1=0 eg3_level2=1 eg3_level3=0.9117225 eg3_level4=0 eg3_level5=0 amplitude_cc16=83.4645669 ampeg_attack=0 ampeg_release=0.555493 eg4_time1=0 eg4_time2=0 eg4_time3=0.0865147 eg4_time4=0.555493 eg4_time5=0.555493 eg4_level1=1 eg4_level2=1 eg4_level3=1 eg4_level4=1 eg4_level5=1
<region>sample=../Sample/Wave87.wav lokey=2 hikey=2 pitch_keycenter=66 tune=2945 loop_mode=one_shot pan=0 eg2_cutoff=4864 eg2_sustain=4 eg2_time1=0 eg2_time2=0 eg2_time3=0.0489896 eg2_time4=0 eg2_time5=0 eg2_level1=0 eg2_level2=1 eg2_level3=0.9055118 eg2_level4=0.9055118 eg2_level5=1 eg3_amplitude=100 eg3_sustain=4 eg3_time1=0 eg3_time2=0 eg3_time3=0.0846229 eg3_time4=0.5433461 eg3_time5=0.5433461 eg3_level1=0 eg3_level2=1 eg3_level3=0.9117225 eg3_level4=0 eg3_level5=0 amplitude_cc16=83.4645669 ampeg_attack=0 ampeg_release=0.5433461 eg4_time1=0 eg4_time2=0 eg4_time3=0.0846229 eg4_time4=0.5433461 eg4_time5=0.5433461 eg4_level1=1 eg4_level2=1 eg4_level3=1 eg4_level4=1 eg4_level5=1
<region>sample=../Sample/Wave87.wav lokey=3 hikey=3 pitch_keycenter=66 tune=2895 loop_mode=one_shot pan=0 eg2_cutoff=4864 eg2_sustain=4 eg2_time1=0 eg2_time2=0 eg2_time3=0.0489896 eg2_time4=0 eg2_time5=0 eg2_level1=0 eg2_level2=1 eg2_level3=0.9055118 eg2_level4=0.9055118 eg2_level5=1 eg3_amplitude=100 eg3_sustain=4 eg3_time1=0 eg3_time2=0 eg3_time3=0.0827724 eg3_time4=0.5314648 eg3_time5=0.5314648 eg3_level1=0 eg3_level2=1 eg3_level3=0.9117225 eg3_level4=0 eg3_level5=0 amplitude_cc16=83.4645669 ampeg_attack=0 ampeg_release=0.5314648 eg4_time1=0 eg4_time2=0 eg4_time3=0.0827724 eg4_time4=0.5314648 eg4_time5=0.5314648 eg4_level1=1 eg4_level2=1 eg4_level3=1 eg4_level4=1 eg4_level5=1
<region>sample=../Sample/Wave87.wav lokey=4 hikey=4 pitch_keycenter=66 tune=2845 loop_mode=one_shot pan=0 eg2_cutoff=4864 eg2_sustain=4 eg2_time1=0 eg2_time2=0 eg2_time3=0.0489896 eg2_time4=0 eg2_time5=0 eg2_level1=0 eg2_level2=1 eg2_level3=0.9055118 eg2_level4=0.9055118 eg2_level5=1 eg3_amplitude=100 eg3_sustain=4 eg3_time1=0 eg3_time2=0 eg3_time3=0.0809625 eg3_time4=0.5198434 eg3_time5=0.5198434 eg3_level1=0 eg3_level2=1 eg3_level3=0.9117225 eg3_level4=0 eg3_level5=0 amplitude_cc16=83.4645669 ampeg_attack=0 ampeg_release=0.5198434 eg4_time1=0 eg4_time2=0 eg4_time3=0.0809625 eg4_time4=0.5198434 eg4_time5=0.5198434 eg4_level1=1 eg4_level2=1 eg4_level3=1 eg4_level4=1 eg4_level5=1
<region>sample=../Sample/Wave87.wav lokey=5 hikey=5 pitch_keycenter=66 tune=2795 loop_mode=one_shot pan=0 eg2_cutoff=4864 eg2_sustain=4 eg2_time1=0 eg2_time2=0 eg2_time3=0.0489896 eg2_time4=0 eg2_time5=0 eg2_level1=0 eg2_level2=1 eg2_level3=0.9055118 eg2_level4=0.9055118 eg2_level5=1 eg3_amplitude=100 eg3_sustain=4 eg3_time1=0 eg3_time2=0 eg3_time3=0.0791921 eg3_time4=0.508476 eg3_time5=0.508476 eg3_level1=0 eg3_level2=1 eg3_level3=0.9117225 eg3_level4=0 eg3_level5=0 amplitude_cc16=83.4645669 ampeg_attack=0 ampeg_release=0.508476 eg4_time1=0 eg4_time2=0 eg4_time3=0.0791921 eg4_time4=0.508476 eg4_time5=0.508476 eg4_level1=1 eg4_level2=1 eg4_level3=1 eg4_level4=1 eg4_level5=1
<region>sample=../Sample/Wave87.wav lokey=6 hikey=6 pitch_keycenter=66 tune=2745 loop_mode=one_shot pan=0 eg2_cutoff=4864 eg2_sustain=4 eg2_time1=0 eg2_time2=0 eg2_time3=0.0489896 eg2_time4=0 eg2_time5=0 eg2_level1=0 eg2_level2=1 eg2_level3=0.9055118 eg2_level4=0.9055118 eg2_level5=1 eg3_amplitude=100 eg3_sustain=4 eg3_time1=0 eg3_time2=0 eg3_time3=0.0774604 eg3_time4=0.4973572 eg3_time5=0.4973572 eg3_level1=0 eg3_level2=1 eg3_level3=0.9117225 eg3_level4=0 eg3_level5=0 amplitude_cc16=83.4645669 ampeg_attack=0 ampeg_release=0.4973572 eg4_time1=0 eg4_time2=0 eg4_time3=0.0774604 eg4_time4=0.4973572 eg4_time5=0.4973572 eg4_level1=1 eg4_level2=1 eg4_level3=1 eg4_level4=1 eg4_level5=1
<region>sample=../Sample/Wave87.wav lokey=7 hikey=7 pitch_keycenter=66 tune=2695 loop_mode=one_shot pan=0 eg2_cutoff=4864 eg2_sustain=4 eg2_time1=0 eg2_time2=0 eg2_time3=0.0489896 eg2_time4=0 eg2_time5=0 eg2_level1=0 eg2_level2=1 eg2_level3=0.9055118 eg2_level4=0.9055118 eg2_level5=1 eg3_amplitude=100 eg3_sustain=4 eg3_time1=0 eg3_time2=0 eg3_time3=0.0757666 eg3_time4=0.4864816 eg3_time5=0.4864816 eg3_level1=0 eg3_level2=1 eg3_level3=0.9117225 eg3_level4=0 eg3_level5=0 amplitude_cc16=83.4645669 ampeg_attack=0 ampeg_release=0.4864816 eg4_time1=0 eg4_time2=0 eg4_time3=0.0757666 eg4_time4=0.4864816 eg4_time5=0.4864816 eg4_level1=1 eg4_level2=1 eg4_level3=1 eg4_level4=1 eg4_level5=1
<region>sample=../Sample/Wave87.wav lokey=8 hikey=8 pitch_keycenter=66 tune=2645 loop_mode=one_shot pan=0 eg2_cutoff=4864 eg2_sustain=4 eg2_time1=0 eg2_time2=0 eg2_time3=0.0489896 eg2_time4=0 eg2_time5=0 eg2_level1=0 eg2_level2=1 eg2_level3=0.9055118 eg2_level4=0.9055118 eg2_level5=1 eg3_amplitude=100 eg3_sustain=4 eg3_time1=0 eg3_time2=0 eg3_time3=0.0741098 eg3_time4=0.4758437 eg3_time5=0.4758437 eg3_level1=0 eg3_level2=1 eg3_level3=0.9117225 eg3_level4=0 eg3_level5=0 amplitude_cc16=83.4645669 ampeg_attack=0 ampeg_release=0.4758437 eg4_time1=0 eg4_time2=0 eg4_time3=0.0741098 eg4_time4=0.4758437 eg4_time5=0.4758437 eg4_level1=1 eg4_level2=1 eg4_level3=1 eg4_level4=1 eg4_level5=1
<region>sample=../Sample/Wave87.wav lokey=9 hikey=9 pitch_keycenter=66 tune=2595 loop_mode=one_shot pan=0 eg2_cutoff=4864 eg2_sustain=4 eg2_time1=0 eg2_time2=0 eg2_time3=0.0489896 eg2_time4=0 eg2_time5=0 eg2_level1=0 eg2_level2=1 eg2_level3=0.9055118 eg2_level4=0.9055118 eg2_level5=1 eg3_amplitude=100 eg3_sustain=4 eg3_time1=0 eg3_time2=0 eg3_time3=0.0724892 eg3_time4=0.4654385 eg3_time5=0.4654385 eg3_level1=0 eg3_level2=1 eg3_level3=0.9117225 eg3_level4=0 eg3_level5=0 amplitude_cc16=83.4645669 ampeg_attack=0 ampeg_release=0.4654385 eg4_time1=0 eg4_time2=0 eg4_time3=0.0724892 eg4_time4=0.4654385 eg4_time5=0.4654385 eg4_level1=1 eg4_level2=1 eg4_level3=1 eg4_level4=1 eg4_level5=1
<region>sample=../Sample/Wave87.wav lokey=10 hikey=10 pitch_keycenter=66 tune=2545 loop_mode=one_shot pan=0 eg2_cutoff=4864 eg2_sustain=4 eg2_time1=0 eg2_time2=0 eg2_time3=0.0489896 eg2_time4=0 eg2_time5=0 eg2_level1=0 eg2_level2=1 eg2_level3=0.9055118 eg2_level4=0.9055118 eg2_level5=1 eg3_amplitude=100 eg3_sustain=4 eg3_time1=0 eg3_time2=0 eg3_time3=0.0709041 eg3_time4=0.4552608 eg3_time5=0.4552608 eg3_level1=0 eg3_level2=1 eg3_level3=0.9117225 eg3_level4=0 eg3_level5=0 amplitude_cc16=83.4645669 ampeg_attack=0 ampeg_release=0.4552608 eg4_time1=0 eg4_time2=0 eg4_time3=0.0709041 eg4_time4=0.4552608 eg4_time5=0.4552608 eg4_level1=1 eg4_level2=1 eg4_level3=1 eg4_level4=1 eg4_level5=1
<region>sample=../Sample/Wave87.wav lokey=11 hikey=11 pitch_keycenter=66 tune=2495 loop_mode=one_shot pan=0 eg2_cutoff=4864 eg2_sustain=4 eg2_time1=0 eg2_time2=0 eg2_time3=0.0489896 eg2_time4=0 eg2_time5=0 eg2_level1=0 eg2_level2=1 eg2_level3=0.9055118 eg2_level4=0.9055118 eg2_level5=1 eg3_amplitude=100 eg3_sustain=4 eg3_time1=0 eg3_time2=0 eg3_time3=0.0693537 eg3_time4=0.4453057 eg3_time5=0.4453057 eg3_level1=0 eg3_level2=1 eg3_level3=0.9117225 eg3_level4=0 eg3_level5=0 amplitude_cc16=83.4645669 ampeg_attack=0 ampeg_release=0.4453057 eg4_time1=0 eg4_time2=0 eg4_time3=0.0693537 eg4_time4=0.4453057 eg4_time5=0.4453057 eg4_level1=1 eg4_level2=1 eg4_level3=1 eg4_level4=1 eg4_level5=1
<region>sample=../Sample/Wave87.wav lokey=12 hikey=12 pitch_keycenter=66 tune=2445 loop_mode=one_shot pan=0 eg2_cutoff=4864 eg2_sustain=4 eg2_time1=0 eg2_time2=0 eg2_time3=0.0489896 eg2_time4=0 eg2_time5=0 eg2_level1=0 eg2_level2=1 eg2_level3=0.9055118 eg2_level4=0.9055118 eg2_level5=1 eg3_amplitude=100 eg3_sustain=4 eg3_time1=0 eg3_time2=0 eg3_time3=0.0678371 eg3_time4=0.4355682 eg3_time5=0.4355682 eg3_level1=0 eg3_level2=1 eg3_level3=0.9117225 eg3_level4=0 eg3_level5=0 amplitude_cc16=83.4645669 ampeg_attack=0 ampeg_release=0.4355682 eg4_time1=0 eg4_time2=0 eg4_time3=0.0678371 eg4_time4=0.4355682 eg4_time5=0.4355682 eg4_level1=1 eg4_level2=1 eg4_level3=1 eg4_level4=1 eg4_level5=1
<region>sample=../Sample/Wave87.wav lokey=13 hikey=13 pitch_keycenter=66 tune=2395 loop_mode=one_shot pan=0 eg2_cutoff=4864 eg2_sustain=4 eg2_time1=0 eg2_time2=0 eg2_time3=0.0489896 eg2_time4=0 eg2_time5=0 eg2_level1=0 eg2_level2=1 eg2_level3=0.9055118 eg2_level4=0.9055118 eg2_level5=1 eg3_amplitude=100 eg3_sustain=4 eg3_time1=0 eg3_time2=0 eg3_time3=0.0663537 eg3_time4=0.4260437 eg3_time5=0.4260437 eg3_level1=0 eg3_level2=1 eg3_level3=0.9117225 eg3_level4=0 eg3_level5=0 amplitude_cc16=83.4645669 ampeg_attack=0 ampeg_release=0.4260437 eg4_time1=0 eg4_time2=0 eg4_time3=0.0663537 eg4_time4=0.4260437 eg4_time5=0.4260437 eg4_level1=1 eg4_level2=1 eg4_level3=1 eg4_level4=1 eg4_level5=1
<region>sample=../Sample/Wave87.wav lokey=14 hikey=14 pitch_keycenter=66 tune=2345 loop_mode=one_shot pan=0 eg2_cutoff=4864 eg2_sustain=4 eg2_time1=0 eg2_time2=0 eg2_time3=0.0489896 eg2_time4=0 eg2_time5=0 eg2_level1=0 eg2_level2=1 eg2_level3=0.9055118 eg2_level4=0.9055118 eg2_level5=1 eg3_amplitude=100 eg3_sustain=4 eg3_time1=0 eg3_time2=0 eg3_time3=0.0649028 eg3_time4=0.4167275 eg3_time5=0.4167275 eg3_level1=0 eg3_level2=1 eg3_level3=0.9117225 eg3_level4=0 eg3_level5=0 amplitude_cc16=83.4645669 ampeg_attack=0 ampeg_release=0.4167275 eg4_time1=0 eg4_time2=0 eg4_time3=0.0649028 eg4_time4=0.4167275 eg4_time5=0.4167275 eg4_level1=1 eg4_level2=1 eg4_level3=1 eg4_level4=1 eg4_level5=1
<region>sample=../Sample/Wave87.wav lokey=15 hikey=15 pitch_keycenter=66 tune=2295 loop_mode=one_shot pan=0 eg2_cutoff=4864 eg2_sustain=4 eg2_time1=0 eg2_time2=0 eg2_time3=0.0489896 eg2_time4=0 eg2_time5=0 eg2_level1=0 eg2_level2=1 eg2_level3=0.9055118 eg2_level4=0.9055118 eg2_level5=1 eg3_amplitude=100 eg3_sustain=4 eg3_time1=0 eg3_time2=0 eg3_time3=0.0634836 eg3_time4=0.4076149 eg3_time5=0.4076149 eg3_level1=0 eg3_level2=1 eg3_level3=0.9117225 eg3_level4=0 eg3_level5=0 amplitude_cc16=83.4645669 ampeg_attack=0 ampeg_release=0.4076149 eg4_time1=0 eg4_time2=0 eg4_time3=0.0634836 eg4_time4=0.4076149 eg4_time5=0.4076149 eg4_level1=1 eg4_level2=1 eg4_level3=1 eg4_level4=1 eg4_level5=1
<region>sample=../Sample/Wave87.wav lokey=16 hikey=16 pitch_keycenter=66 tune=2245 loop_mode=one_shot pan=0 eg2_cutoff=4864 eg2_sustain=4 eg2_time1=0 eg2_time2=0 eg2_time3=0.0489896 eg2_time4=0 eg2_time5=0 eg2_level1=0 eg2_level2=1 eg2_level3=0.9055118 eg2_level4=0.9055118 eg2_level5=1 eg3_amplitude=100 eg3_sustain=4 eg3_time1=0 eg3_time2=0 eg3_time3=0.0620954 eg3_time4=0.3987017 eg3_time5=0.3987017 eg3_level1=0 eg3_level2=1 eg3_level3=0.9117225 eg3_level4=0 eg3_level5=0 amplitude_cc16=83.4645669 ampeg_attack=0 ampeg_release=0.3987017 eg4_time1=0 eg4_time2=0 eg4_time3=0.0620954 eg4_time4=0.3987017 eg4_time5=0.3987017 eg4_level1=1 eg4_level2=1 eg4_level3=1 eg4_level4=1 eg4_level5=1
<region>sample=../Sample/Wave87.wav lokey=17 hikey=17 pitch_keycenter=66 tune=2195 loop_mode=one_shot pan=0 eg2_cutoff=4864 eg2_sustain=4 eg2_time1=0 eg2_time2=0 eg2_time3=0.0489896 eg2_time4=0 eg2_time5=0 eg2_level1=0 eg2_level2=1 eg2_level3=0.9055118 eg2_level4=0.9055118 eg2_level5=1 eg3_amplitude=100 eg3_sustain=4 eg3_time1=0 eg3_time2=0 eg3_time3=0.0607375 eg3_time4=0.3899833 eg3_time5=0.3899833 eg3_level1=0 eg3_level2=1 eg3_level3=0.9117225 eg3_level4=0 eg3_level5=0 amplitude_cc16=83.4645669 ampeg_attack=0 ampeg_release=0.3899833 eg4_time1=0 eg4_time2=0 eg4_time3=0.0607375 eg4_time4=0.3899833 eg4_time5=0.3899833 eg4_level1=1 eg4_level2=1 eg4_level3=1 eg4_level4=1 eg4_level5=1
<region>sample=../Sample/Wave87.wav lokey=18 hikey=18 pitch_keycenter=66 tune=2145 loop_mode=one_shot pan=0 eg2_cutoff=4864 eg2_sustain=4 eg2_time1=0 eg2_time2=0 eg2_time3=0.0489896 eg2_time4=0 eg2_time5=0 eg2_level1=0 eg2_level2=1 eg2_level3=0.9055118 eg2_level4=0.9055118 eg2_level5=1 eg3_amplitude=100 eg3_sustain=4 eg3_time1=0 eg3_time2=0 eg3_time3=0.0594094 eg3_time4=0.3814556 eg3_time5=0.3814556 eg3_level1=0 eg3_level2=1 eg3_level3=0.9117225 eg3_level4=0 eg3_level5=0 amplitude_cc16=83.4645669 ampeg_attack=0 ampeg_release=0.3814556 eg4_time1=0 eg4_time2=0 eg4_time3=0.0594094 eg4_time4=0.3814556 eg4_time5=0.3814556 eg4_level1=1 eg4_level2=1 eg4_level3=1 eg4_level4=1 eg4_level5=1
<region>sample=../Sample/Wave87.wav lokey=19 hikey=19 pitch_keycenter=66 tune=2095 loop_mode=one_shot pan=0 eg2_cutoff=4864 eg2_sustain=4 eg2_time1=0 eg2_time2=0 eg2_time3=0.0489896 eg2_time4=0 eg2_time5=0 eg2_level1=0 eg2_level2=1 eg2_level3=0.9055118 eg2_level4=0.9055118 eg2_level5=1 eg3_amplitude=100 eg3_sustain=4 eg3_time1=0 eg3_time2=0 eg3_time3=0.0581103 eg3_time4=0.3731143 eg3_time5=0.3731143 eg3_level1=0 eg3_level2=1 eg3_level3=0.9117225 eg3_level4=0 eg3_level5=0 amplitude_cc16=83.4645669 ampeg_attack=0 ampeg_release=0.3731143 eg4_time1=0 eg4_time2=0 eg4_time3=0.0581103 eg4_time4=0.3731143 eg4_time5=0.3731143 eg4_level1=1 eg4_level2=1 eg4_level3=1 eg4_level4=1 eg4_level5=1
<region>sample=../Sample/Wave87.wav lokey=20 hikey=20 pitch_keycenter=66 tune=2045 loop_mode=one_shot pan=0 eg2_cutoff=4864 eg2_sustain=4 eg2_time1=0 eg2_time2=0 eg2_time3=0.0489896 eg2_time4=0 eg2_time5=0 eg2_level1=0 eg2_level2=1 eg2_level3=0.9055118 eg2_level4=0.9055118 eg2_level5=1 eg3_amplitude=100 eg3_sustain=4 eg3_time1=0 eg3_time2=0 eg3_time3=0.0568396 eg3_time4=0.3649555 eg3_time5=0.3649555 eg3_level1=0 eg3_level2=1 eg3_level3=0.9117225 eg3_level4=0 eg3_level5=0 amplitude_cc16=83.4645669 ampeg_attack=0 ampeg_release=0.3649555 eg4_time1=0 eg4_time2=0 eg4_time3=0.0568396 eg4_time4=0.3649555 eg4_time5=0.3649555 eg4_level1=1 eg4_level2=1 eg4_level3=1 eg4_level4=1 eg4_level5=1
<region>sample=../Sample/Wave87.wav lokey=21 hikey=21 pitch_keycenter=66 tune=1995 loop_mode=one_shot pan=0 eg2_cutoff=4864 eg2_sustain=4 eg2_time1=0 eg2_time2=0 eg2_time3=0.0489896 eg2_time4=0 eg2_time5=0 eg2_level1=0 eg2_level2=1 eg2_level3=0.9055118 eg2_level4=0.9055118 eg2_level5=1 eg3_amplitude=100 eg3_sustain=4 eg3_time1=0 eg3_time2=0 eg3_time3=0.0555967 eg3_time4=0.356975 eg3_time5=0.356975 eg3_level1=0 eg3_level2=1 eg3_level3=0.9117225 eg3_level4=0 eg3_level5=0 amplitude_cc16=83.4645669 ampeg_attack=0 ampeg_release=0.356975 eg4_time1=0 eg4_time2=0 eg4_time3=0.0555967 eg4_time4=0.356975 eg4_time5=0.356975 eg4_level1=1 eg4_level2=1 eg4_level3=1 eg4_level4=1 eg4_level5=1
<region>sample=../Sample/Wave87.wav lokey=22 hikey=22 pitch_keycenter=66 tune=1945 loop_mode=one_shot pan=0 eg2_cutoff=4864 eg2_sustain=4 eg2_time1=0 eg2_time2=0 eg2_time3=0.0489896 eg2_time4=0 eg2_time5=0 eg2_level1=0 eg2_level2=1 eg2_level3=0.9055118 eg2_level4=0.9055118 eg2_level5=1 eg3_amplitude=100 eg3_sustain=4 eg3_time1=0 eg3_time2=0 eg3_time3=0.054381 eg3_time4=0.3491691 eg3_time5=0.3491691 eg3_level1=0 eg3_level2=1 eg3_level3=0.9117225 eg3_level4=0 eg3_level5=0 amplitude_cc16=83.4645669 ampeg_attack=0 ampeg_release=0.3491691 eg4_time1=0 eg4_time2=0 eg4_time3=0.054381 eg4_time4=0.3491691 eg4_time5=0.3491691 eg4_level1=1 eg4_level2=1 eg4_level3=1 eg4_level4=1 eg4_level5=1
<region>sample=../Sample/Wave87.wav lokey=23 hikey=23 pitch_keycenter=66 tune=1895 loop_mode=one_shot pan=0 eg2_cutoff=4864 eg2_sustain=4 eg2_time1=0 eg2_time2=0 eg2_time3=0.0489896 eg2_time4=0 eg2_time5=0 eg2_level1=0 eg2_level2=1 eg2_level3=0.9055118 eg2_level4=0.9055118 eg2_level5=1 eg3_amplitude=100 eg3_sustain=4 eg3_time1=0 eg3_time2=0 eg3_time3=0.0531918 eg3_time4=0.3415339 eg3_time5=0.3415339 eg3_level1=0 eg3_level2=1 eg3_level3=0.9117225 eg3_level4=0 eg3_level5=0 amplitude_cc16=83.4645669 ampeg_attack=0 ampeg_release=0.3415339 eg4_time1=0 eg4_time2=0 eg4_time3=0.0531918 eg4_time4=0.3415339 eg4_time5=0.3415339 eg4_level1=1 eg4_level2=1 eg4_level3=1 eg4_level4=1 eg4_level5=1
<region>sample=../Sample/Wave87.wav lokey=24 hikey=24 pitch_keycenter=66 tune=1845 loop_mode=one_shot pan=0 eg2_cutoff=4864 eg2_sustain=4 eg2_time1=0 eg2_time2=0 eg2_time3=0.0489896 eg2_time4=0 eg2_time5=0 eg2_level1=0 eg2_level2=1 eg2_level3=0.9055118 eg2_level4=0.9055118 eg2_level5=1 eg3_amplitude=100 eg3_sustain=4 eg3_time1=0 eg3_time2=0 eg3_time3=0.0520287 eg3_time4=0.3340656 eg3_time5=0.3340656 eg3_level1=0 eg3_level2=1 eg3_level3=0.9117225 eg3_level4=0 eg3_level5=0 amplitude_cc16=83.4645669 ampeg_attack=0 ampeg_release=0.3340656 eg4_time1=0 eg4_time2=0 eg4_time3=0.0520287 eg4_time4=0.3340656 eg4_time5=0.3340656 eg4_level1=1 eg4_level2=1 eg4_level3=1 eg4_level4=1 eg4_level5=1
<region>sample=../Sample/Wave87.wav lokey=25 hikey=25 pitch_keycenter=66 tune=1795 loop_mode=one_shot pan=0 eg2_cutoff=4864 eg2_sustain=4 eg2_time1=0 eg2_time2=0 eg2_time3=0.0489896 eg2_time4=0 eg2_time5=0 eg2_level1=0 eg2_level2=1 eg2_level3=0.9055118 eg2_level4=0.9055118 eg2_level5=1 eg3_amplitude=100 eg3_sustain=4 eg3_time1=0 eg3_time2=0 eg3_time3=0.050891 eg3_time4=0.3267606 eg3_time5=0.3267606 eg3_level1=0 eg3_level2=1 eg3_level3=0.9117225 eg3_level4=0 eg3_level5=0 amplitude_cc16=83.4645669 ampeg_attack=0 ampeg_release=0.3267606 eg4_time1=0 eg4_time2=0 eg4_time3=0.050891 eg4_time4=0.3267606 eg4_time5=0.3267606 eg4_level1=1 eg4_level2=1 eg4_level3=1 eg4_level4=1 eg4_level5=1
<region>sample=../Sample/Wave87.wav lokey=26 hikey=26 pitch_keycenter=66 tune=1745 loop_mode=one_shot pan=0 eg2_cutoff=4864 eg2_sustain=4 eg2_time1=0 eg2_time2=0 eg2_time3=0.0489896 eg2_time4=0 eg2_time5=0 eg2_level1=0 eg2_level2=1 eg2_level3=0.9055118 eg2_level4=0.9055118 eg2_level5=1 eg3_amplitude=100 eg3_sustain=4 eg3_time1=0 eg3_time2=0 eg3_time3=0.0497782 eg3_time4=0.3196154 eg3_time5=0.3196154 eg3_level1=0 eg3_level2=1 eg3_level3=0.9117225 eg3_level4=0 eg3_level5=0 amplitude_cc16=83.4645669 ampeg_attack=0 ampeg_release=0.3196154 eg4_time1=0 eg4_time2=0 eg4_time3=0.0497782 eg4_time4=0.3196154 eg4_time5=0.3196154 eg4_level1=1 eg4_level2=1 eg4_level3=1 eg4_level4=1 eg4_level5=1
<region>sample=../Sample/Wave87.wav lokey=27 hikey=27 pitch_keycenter=66 tune=1695 loop_mode=one_shot pan=0 eg2_cutoff=4864 eg2_sustain=4 eg2_time1=0 eg2_time2=0 eg2_time3=0.0489896 eg2_time4=0 eg2_time5=0 eg2_level1=0 eg2_level2=1 eg2_level3=0.9055118 eg2_level4=0.9055118 eg2_level5=1 eg3_amplitude=100 eg3_sustain=4 eg3_time1=0 eg3_time2=0 eg3_time3=0.0486897 eg3_time4=0.3126264 eg3_time5=0.3126264 eg3_level1=0 eg3_level2=1 eg3_level3=0.9117225 eg3_level4=0 eg3_level5=0 amplitude_cc16=83.4645669 ampeg_attack=0 ampeg_release=0.3126264 eg4_time1=0 eg4_time2=0 eg4_time3=0.0486897 eg4_time4=0.3126264 eg4_time5=0.3126264 eg4_level1=1 eg4_level2=1 eg4_level3=1 eg4_level4=1 eg4_level5=1
<region>sample=../Sample/Wave87.wav lokey=28 hikey=28 pitch_keycenter=66 tune=1645 loop_mode=one_shot pan=0 eg2_cutoff=4864 eg2_sustain=4 eg2_time1=0 eg2_time2=0 eg2_time3=0.0489896 eg2_time4=0 eg2_time5=0 eg2_level1=0 eg2_level2=1 eg2_level3=0.9055118 eg2_level4=0.9055118 eg2_level5=1 eg3_amplitude=100 eg3_sustain=4 eg3_time1=0 eg3_time2=0 eg3_time3=0.047625 eg3_time4=0.3057902 eg3_time5=0.3057902 eg3_level1=0 eg3_level2=1 eg3_level3=0.9117225 eg3_level4=0 eg3_level5=0 amplitude_cc16=83.4645669 ampeg_attack=0 ampeg_release=0.3057902 eg4_time1=0 eg4_time2=0 eg4_time3=0.047625 eg4_time4=0.3057902 eg4_time5=0.3057902 eg4_level1=1 eg4_level2=1 eg4_level3=1 eg4_level4=1 eg4_level5=1
<region>sample=../Sample/Wave87.wav lokey=29 hikey=29 pitch_keycenter=66 tune=1595 loop_mode=one_shot pan=0 eg2_cutoff=4864 eg2_sustain=4 eg2_time1=0 eg2_time2=0 eg2_time3=0.0489896 eg2_time4=0 eg2_time5=0 eg2_level1=0 eg2_level2=1 eg2_level3=0.9055118 eg2_level4=0.9055118 eg2_level5=1 eg3_amplitude=100 eg3_sustain=4 eg3_time1=0 eg3_time2=0 eg3_time3=0.0465836 eg3_time4=0.2991035 eg3_time5=0.2991035 eg3_level1=0 eg3_level2=1 eg3_level3=0.9117225 eg3_level4=0 eg3_level5=0 amplitude_cc16=83.4645669 ampeg_attack=0 ampeg_release=0.2991035 eg4_time1=0 eg4_time2=0 eg4_time3=0.0465836 eg4_time4=0.2991035 eg4_time5=0.2991035 eg4_level1=1 eg4_level2=1 eg4_level3=1 eg4_level4=1 eg4_level5=1
<region>sample=../Sample/Wave87.wav lokey=30 hikey=30 pitch_keycenter=66 tune=1545 loop_mode=one_shot pan=0 eg2_cutoff=4864 eg2_sustain=4 eg2_time1=0 eg2_time2=0 eg2_time3=0.0489896 eg2_time4=0 eg2_time5=0 eg2_level1=0 eg2_level2=1 eg2_level3=0.9055118 eg2_level4=0.9055118 eg2_level5=1 eg3_amplitude=100 eg3_sustain=4 eg3_time1=0 eg3_time2=0 eg3_time3=0.0455649 eg3_time4=0.2925631 eg3_time5=0.2925631 eg3_level1=0 eg3_level2=1 eg3_level3=0.9117225 eg3_level4=0 eg3_level5=0 amplitude_cc16=83.4645669 ampeg_attack=0 ampeg_release=0.2925631 eg4_time1=0 eg4_time2=0 eg4_time3=0.0455649 eg4_time4=0.2925631 eg4_time5=0.2925631 eg4_level1=1 eg4_level2=1 eg4_level3=1 eg4_level4=1 eg4_level5=1
<region>sample=../Sample/Wave87.wav lokey=31 hikey=31 pitch_keycenter=66 tune=1495 loop_mode=one_shot pan=0 eg2_cutoff=4864 eg2_sustain=4 eg2_time1=0 eg2_time2=0 eg2_time3=0.0489896 eg2_time4=0 eg2_time5=0 eg2_level1=0 eg2_level2=1 eg2_level3=0.9055118 eg2_level4=0.9055118 eg2_level5=1 eg3_amplitude=100 eg3_sustain=4 eg3_time1=0 eg3_time2=0 eg3_time3=0.0445686 eg3_time4=0.2861656 eg3_time5=0.2861656 eg3_level1=0 eg3_level2=1 eg3_level3=0.9117225 eg3_level4=0 eg3_level5=0 amplitude_cc16=83.4645669 ampeg_attack=0 ampeg_release=0.2861656 eg4_time1=0 eg4_time2=0 eg4_time3=0.0445686 eg4_time4=0.2861656 eg4_time5=0.2861656 eg4_level1=1 eg4_level2=1 eg4_level3=1 eg4_level4=1 eg4_level5=1
<region>sample=../Sample/Wave87.wav lokey=32 hikey=32 pitch_keycenter=66 tune=1445 loop_mode=one_shot pan=0 eg2_cutoff=4864 eg2_sustain=4 eg2_time1=0 eg2_time2=0 eg2_time3=0.0489896 eg2_time4=0 eg2_time5=0 eg2_level1=0 eg2_level2=1 eg2_level3=0.9055118 eg2_level4=0.9055118 eg2_level5=1 eg3_amplitude=100 eg3_sustain=4 eg3_time1=0 eg3_time2=0 eg3_time3=0.043594 eg3_time4=0.2799081 eg3_time5=0.2799081 eg3_level1=0 eg3_level2=1 eg3_level3=0.9117225 eg3_level4=0 eg3_level5=0 amplitude_cc16=83.4645669 ampeg_attack=0 ampeg_release=0.2799081 eg4_time1=0 eg4_time2=0 eg4_time3=0.043594 eg4_time4=0.2799081 eg4_time5=0.2799081 eg4_level1=1 eg4_level2=1 eg4_level3=1 eg4_level4=1 eg4_level5=1
<region>sample=../Sample/Wave87.wav lokey=33 hikey=33 pitch_keycenter=66 tune=1395 loop_mode=one_shot pan=0 eg2_cutoff=4864 eg2_sustain=4 eg2_time1=0 eg2_time2=0 eg2_time3=0.0489896 eg2_time4=0 eg2_time5=0 eg2_level1=0 eg2_level2=1 eg2_level3=0.9055118 eg2_level4=0.9055118 eg2_level5=1 eg3_amplitude=100 eg3_sustain=4 eg3_time1=0 eg3_time2=0 eg3_time3=0.0426407 eg3_time4=0.2737874 eg3_time5=0.2737874 eg3_level1=0 eg3_level2=1 eg3_level3=0.9117225 eg3_level4=0 eg3_level5=0 amplitude_cc16=83.4645669 ampeg_attack=0 ampeg_release=0.2737874 eg4_time1=0 eg4_time2=0 eg4_time3=0.0426407 eg4_time4=0.2737874 eg4_time5=0.2737874 eg4_level1=1 eg4_level2=1 eg4_level3=1 eg4_level4=1 eg4_level5=1
<region>sample=../Sample/Wave87.wav lokey=34 hikey=34 pitch_keycenter=66 tune=1345 loop_mode=one_shot pan=0 eg2_cutoff=4864 eg2_sustain=4 eg2_time1=0 eg2_time2=0 eg2_time3=0.0489896 eg2_time4=0 eg2_time5=0 eg2_level1=0 eg2_level2=1 eg2_level3=0.9055118 eg2_level4=0.9055118 eg2_level5=1 eg3_amplitude=100 eg3_sustain=4 eg3_time1=0 eg3_time2=0 eg3_time3=0.0417083 eg3_time4=0.2678005 eg3_time5=0.2678005 eg3_level1=0 eg3_level2=1 eg3_level3=0.9117225 eg3_level4=0 eg3_level5=0 amplitude_cc16=83.4645669 ampeg_attack=0 ampeg_release=0.2678005 eg4_time1=0 eg4_time2=0 eg4_time3=0.0417083 eg4_time4=0.2678005 eg4_time5=0.2678005 eg4_level1=1 eg4_level2=1 eg4_level3=1 eg4_level4=1 eg4_level5=1
<region>sample=../Sample/Wave87.wav lokey=35 hikey=35 pitch_keycenter=66 tune=1295 loop_mode=one_shot pan=0 eg2_cutoff=4864 eg2_sustain=4 eg2_time1=0 eg2_time2=0 eg2_time3=0.0489896 eg2_time4=0 eg2_time5=0 eg2_level1=0 eg2_level2=1 eg2_level3=0.9055118 eg2_level4=0.9055118 eg2_level5=1 eg3_amplitude=100 eg3_sustain=4 eg3_time1=0 eg3_time2=0 eg3_time3=0.0407963 eg3_time4=0.2619445 eg3_time5=0.2619445 eg3_level1=0 eg3_level2=1 eg3_level3=0.9117225 eg3_level4=0 eg3_level5=0 amplitude_cc16=83.4645669 ampeg_attack=0 ampeg_release=0.2619445 eg4_time1=0 eg4_time2=0 eg4_time3=0.0407963 eg4_time4=0.2619445 eg4_time5=0.2619445 eg4_level1=1 eg4_level2=1 eg4_level3=1 eg4_level4=1 eg4_level5=1
<region>sample=../Sample/Wave87.wav lokey=36 hikey=36 pitch_keycenter=66 tune=1245 loop_mode=one_shot pan=0 eg2_cutoff=4864 eg2_sustain=4 eg2_time1=0 eg2_time2=0 eg2_time3=0.0489896 eg2_time4=0 eg2_time5=0 eg2_level1=0 eg2_level2=1 eg2_level3=0.9055118 eg2_level4=0.9055118 eg2_level5=1 eg3_amplitude=100 eg3_sustain=4 eg3_time1=0 eg3_time2=0 eg3_time3=0.0399042 eg3_time4=0.2562166 eg3_time5=0.2562166 eg3_level1=0 eg3_level2=1 eg3_level3=0.9117225 eg3_level4=0 eg3_level5=0 amplitude_cc16=83.4645669 ampeg_attack=0 ampeg_release=0.2562166 eg4_time1=0 eg4_time2=0 eg4_time3=0.0399042 eg4_time4=0.2562166 eg4_time5=0.2562166 eg4_level1=1 eg4_level2=1 eg4_level3=1 eg4_level4=1 eg4_level5=1
<region>sample=../Sample/Wave87.wav lokey=37 hikey=37 pitch_keycenter=66 tune=1195 loop_mode=one_shot pan=0 eg2_cutoff=4864 eg2_sustain=4 eg2_time1=0 eg2_time2=0 eg2_time3=0.0489896 eg2_time4=0 eg2_time5=0 eg2_level1=0 eg2_level2=1 eg2_level3=0.9055118 eg2_level4=0.9055118 eg2_level5=1 eg3_amplitude=100 eg3_sustain=4 eg3_time1=0 eg3_time2=0 eg3_time3=0.0390316 eg3_time4=0.2506139 eg3_time5=0.2506139 eg3_level1=0 eg3_level2=1 eg3_level3=0.9117225 eg3_level4=0 eg3_level5=0 amplitude_cc16=83.4645669 ampeg_attack=0 ampeg_release=0.2506139 eg4_time1=0 eg4_time2=0 eg4_time3=0.0390316 eg4_time4=0.2506139 eg4_time5=0.2506139 eg4_level1=1 eg4_level2=1 eg4_level3=1 eg4_level4=1 eg4_level5=1
<region>sample=../Sample/Wave87.wav lokey=38 hikey=38 pitch_keycenter=66 tune=1145 loop_mode=one_shot pan=0 eg2_cutoff=4864 eg2_sustain=4 eg2_time1=0 eg2_time2=0 eg2_time3=0.0489896 eg2_time4=0 eg2_time5=0 eg2_level1=0 eg2_level2=1 eg2_level3=0.9055118 eg2_level4=0.9055118 eg2_level5=1 eg3_amplitude=100 eg3_sustain=4 eg3_time1=0 eg3_time2=0 eg3_time3=0.0381781 eg3_time4=0.2451338 eg3_time5=0.2451338 eg3_level1=0 eg3_level2=1 eg3_level3=0.9117225 eg3_level4=0 eg3_level5=0 amplitude_cc16=83.4645669 ampeg_attack=0 ampeg_release=0.2451338 eg4_time1=0 eg4_time2=0 eg4_time3=0.0381781 eg4_time4=0.2451338 eg4_time5=0.2451338 eg4_level1=1 eg4_level2=1 eg4_level3=1 eg4_level4=1 eg4_level5=1
<region>sample=../Sample/Wave87.wav lokey=39 hikey=39 pitch_keycenter=66 tune=1095 loop_mode=one_shot pan=0 eg2_cutoff=4864 eg2_sustain=4 eg2_time1=0 eg2_time2=0 eg2_time3=0.0489896 eg2_time4=0 eg2_time5=0 eg2_level1=0 eg2_level2=1 eg2_level3=0.9055118 eg2_level4=0.9055118 eg2_level5=1 eg3_amplitude=100 eg3_sustain=4 eg3_time1=0 eg3_time2=0 eg3_time3=0.0373433 eg3_time4=0.2397735 eg3_time5=0.2397735 eg3_level1=0 eg3_level2=1 eg3_level3=0.9117225 eg3_level4=0 eg3_level5=0 amplitude_cc16=83.4645669 ampeg_attack=0 ampeg_release=0.2397735 eg4_time1=0 eg4_time2=0 eg4_time3=0.0373433 eg4_time4=0.2397735 eg4_time5=0.2397735 eg4_level1=1 eg4_level2=1 eg4_level3=1 eg4_level4=1 eg4_level5=1
<region>sample=../Sample/Wave87.wav lokey=40 hikey=40 pitch_keycenter=66 tune=1045 loop_mode=one_shot pan=0 eg2_cutoff=4864 eg2_sustain=4 eg2_time1=0 eg2_time2=0 eg2_time3=0.0489896 eg2_time4=0 eg2_time5=0 eg2_level1=0 eg2_level2=1 eg2_level3=0.9055118 eg2_level4=0.9055118 eg2_level5=1 eg3_amplitude=100 eg3_sustain=4 eg3_time1=0 eg3_time2=0 eg3_time3=0.0365267 eg3_time4=0.2345304 eg3_time5=0.2345304 eg3_level1=0 eg3_level2=1 eg3_level3=0.9117225 eg3_level4=0 eg3_level5=0 amplitude_cc16=83.4645669 ampeg_attack=0 ampeg_release=0.2345304 eg4_time1=0 eg4_time2=0 eg4_time3=0.0365267 eg4_time4=0.2345304 eg4_time5=0.2345304 eg4_level1=1 eg4_level2=1 eg4_level3=1 eg4_level4=1 eg4_level5=1
<region>sample=../Sample/Wave87.wav lokey=41 hikey=41 pitch_keycenter=66 tune=995 loop_mode=one_shot pan=0 eg2_cutoff=4864 eg2_sustain=4 eg2_time1=0 eg2_time2=0 eg2_time3=0.0489896 eg2_time4=0 eg2_time5=0 eg2_level1=0 eg2_level2=1 eg2_level3=0.9055118 eg2_level4=0.9055118 eg2_level5=1 eg3_amplitude=100 eg3_sustain=4 eg3_time1=0 eg3_time2=0 eg3_time3=0.035728 eg3_time4=0.2294019 eg3_time5=0.2294019 eg3_level1=0 eg3_level2=1 eg3_level3=0.9117225 eg3_level4=0 eg3_level5=0 amplitude_cc16=83.4645669 ampeg_attack=0 ampeg_release=0.2294019 eg4_time1=0 eg4_time2=0 eg4_time3=0.035728 eg4_time4=0.2294019 eg4_time5=0.2294019 eg4_level1=1 eg4_level2=1 eg4_level3=1 eg4_level4=1 eg4_level5=1
<region>sample=../Sample/Wave87.wav lokey=42 hikey=42 pitch_keycenter=66 tune=945 loop_mode=one_shot pan=0 eg2_cutoff=4864 eg2_sustain=4 eg2_time1=0 eg2_time2=0 eg2_time3=0.0489896 eg2_time4=0 eg2_time5=0 eg2_level1=0 eg2_level2=1 eg2_level3=0.9055118 eg2_level4=0.9055118 eg2_level5=1 eg3_amplitude=100 eg3_sustain=4 eg3_time1=0 eg3_time2=0 eg3_time3=0.0349467 eg3_time4=0.2243856 eg3_time5=0.2243856 eg3_level1=0 eg3_level2=1 eg3_level3=0.9117225 eg3_level4=0 eg3_level5=0 amplitude_cc16=83.4645669 ampeg_attack=0 ampeg_release=0.2243856 eg4_time1=0 eg4_time2=0 eg4_time3=0.0349467 eg4_time4=0.2243856 eg4_time5=0.2243856 eg4_level1=1 eg4_level2=1 eg4_level3=1 eg4_level4=1 eg4_level5=1
<region>sample=../Sample/Wave87.wav lokey=43 hikey=43 pitch_keycenter=66 tune=895 loop_mode=one_shot pan=0 eg2_cutoff=4864 eg2_sustain=4 eg2_time1=0 eg2_time2=0 eg2_time3=0.0489896 eg2_time4=0 eg2_time5=0 eg2_level1=0 eg2_level2=1 eg2_level3=0.9055118 eg2_level4=0.9055118 eg2_level5=1 eg3_amplitude=100 eg3_sustain=4 eg3_time1=0 eg3_time2=0 eg3_time3=0.0341825 eg3_time4=0.219479 eg3_time5=0.219479 eg3_level1=0 eg3_level2=1 eg3_level3=0.9117225 eg3_level4=0 eg3_level5=0 amplitude_cc16=83.4645669 ampeg_attack=0 ampeg_release=0.219479 eg4_time1=0 eg4_time2=0 eg4_time3=0.0341825 eg4_time4=0.219479 eg4_time5=0.219479 eg4_level1=1 eg4_level2=1 eg4_level3=1 eg4_level4=1 eg4_level5=1
<region>sample=../Sample/Wave87.wav lokey=44 hikey=44 pitch_keycenter=66 tune=845 loop_mode=one_shot pan=0 eg2_cutoff=4864 eg2_sustain=4 eg2_time1=0 eg2_time2=0 eg2_time3=0.0489896 eg2_time4=0 eg2_time5=0 eg2_level1=0 eg2_level2=1 eg2_level3=0.9055118 eg2_level4=0.9055118 eg2_level5=1 eg3_amplitude=100 eg3_sustain=4 eg3_time1=0 eg3_time2=0 eg3_time3=0.0334351 eg3_time4=0.2146797 eg3_time5=0.2146797 eg3_level1=0 eg3_level2=1 eg3_level3=0.9117225 eg3_level4=0 eg3_level5=0 amplitude_cc16=83.4645669 ampeg_attack=0 ampeg_release=0.2146797 eg4_time1=0 eg4_time2=0 eg4_time3=0.0334351 eg4_time4=0.2146797 eg4_time5=0.2146797 eg4_level1=1 eg4_level2=1 eg4_level3=1 eg4_level4=1 eg4_level5=1
<region>sample=../Sample/Wave87.wav lokey=45 hikey=45 pitch_keycenter=66 tune=795 loop_mode=one_shot pan=0 eg2_cutoff=4864 eg2_sustain=4 eg2_time1=0 eg2_time2=0 eg2_time3=0.0489896 eg2_time4=0 eg2_time5=0 eg2_level1=0 eg2_level2=1 eg2_level3=0.9055118 eg2_level4=0.9055118 eg2_level5=1 eg3_amplitude=100 eg3_sustain=4 eg3_time1=0 eg3_time2=0 eg3_time3=0.0327039 eg3_time4=0.2099853 eg3_time5=0.2099853 eg3_level1=0 eg3_level2=1 eg3_level3=0.9117225 eg3_level4=0 eg3_level5=0 amplitude_cc16=83.4645669 ampeg_attack=0 ampeg_release=0.2099853 eg4_time1=0 eg4_time2=0 eg4_time3=0.0327039 eg4_time4=0.2099853 eg4_time5=0.2099853 eg4_level1=1 eg4_level2=1 eg4_level3=1 eg4_level4=1 eg4_level5=1
<region>sample=../Sample/Wave87.wav lokey=46 hikey=46 pitch_keycenter=66 tune=745 loop_mode=one_shot pan=0 eg2_cutoff=4864 eg2_sustain=4 eg2_time1=0 eg2_time2=0 eg2_time3=0.0489896 eg2_time4=0 eg2_time5=0 eg2_level1=0 eg2_level2=1 eg2_level3=0.9055118 eg2_level4=0.9055118 eg2_level5=1 eg3_amplitude=100 eg3_sustain=4 eg3_time1=0 eg3_time2=0 eg3_time3=0.0319888 eg3_time4=0.2053936 eg3_time5=0.2053936 eg3_level1=0 eg3_level2=1 eg3_level3=0.9117225 eg3_level4=0 eg3_level5=0 amplitude_cc16=83.4645669 ampeg_attack=0 ampeg_release=0.2053936 eg4_time1=0 eg4_time2=0 eg4_time3=0.0319888 eg4_time4=0.2053936 eg4_time5=0.2053936 eg4_level1=1 eg4_level2=1 eg4_level3=1 eg4_level4=1 eg4_level5=1
<region>sample=../Sample/Wave87.wav lokey=47 hikey=47 pitch_keycenter=66 tune=695 loop_mode=one_shot pan=0 eg2_cutoff=4864 eg2_sustain=4 eg2_time1=0 eg2_time2=0 eg2_time3=0.0489896 eg2_time4=0 eg2_time5=0 eg2_level1=0 eg2_level2=1 eg2_level3=0.9055118 eg2_level4=0.9055118 eg2_level5=1 eg3_amplitude=100 eg3_sustain=4 eg3_time1=0 eg3_time2=0 eg3_time3=0.0312893 eg3_time4=0.2009023 eg3_time5=0.2009023 eg3_level1=0 eg3_level2=1 eg3_level3=0.9117225 eg3_level4=0 eg3_level5=0 amplitude_cc16=83.4645669 ampeg_attack=0 ampeg_release=0.2009023 eg4_time1=0 eg4_time2=0 eg4_time3=0.0312893 eg4_time4=0.2009023 eg4_time5=0.2009023 eg4_level1=1 eg4_level2=1 eg4_level3=1 eg4_level4=1 eg4_level5=1
<region>sample=../Sample/Wave87.wav lokey=48 hikey=48 pitch_keycenter=66 tune=645 loop_mode=one_shot pan=0 eg2_cutoff=4864 eg2_sustain=4 eg2_time1=0 eg2_time2=0 eg2_time3=0.0489896 eg2_time4=0 eg2_time5=0 eg2_level1=0 eg2_level2=1 eg2_level3=0.9055118 eg2_level4=0.9055118 eg2_level5=1 eg3_amplitude=100 eg3_sustain=4 eg3_time1=0 eg3_time2=0 eg3_time3=0.0306051 eg3_time4=0.1965092 eg3_time5=0.1965092 eg3_level1=0 eg3_level2=1 eg3_level3=0.9117225 eg3_level4=0 eg3_level5=0 amplitude_cc16=83.4645669 ampeg_attack=0 ampeg_release=0.1965092 eg4_time1=0 eg4_time2=0 eg4_time3=0.0306051 eg4_time4=0.1965092 eg4_time5=0.1965092 eg4_level1=1 eg4_level2=1 eg4_level3=1 eg4_level4=1 eg4_level5=1
<region>sample=../Sample/Wave87.wav lokey=49 hikey=49 pitch_keycenter=66 tune=595 loop_mode=one_shot pan=0 eg2_cutoff=4864 eg2_sustain=4 eg2_time1=0 eg2_time2=0 eg2_time3=0.0489896 eg2_time4=0 eg2_time5=0 eg2_level1=0 eg2_level2=1 eg2_level3=0.9055118 eg2_level4=0.9055118 eg2_level5=1 eg3_amplitude=100 eg3_sustain=4 eg3_time1=0 eg3_time2=0 eg3_time3=0.0299359 eg3_time4=0.1922121 eg3_time5=0.1922121 eg3_level1=0 eg3_level2=1 eg3_level3=0.9117225 eg3_level4=0 eg3_level5=0 amplitude_cc16=83.4645669 ampeg_attack=0 ampeg_release=0.1922121 eg4_time1=0 eg4_time2=0 eg4_time3=0.0299359 eg4_time4=0.1922121 eg4_time5=0.1922121 eg4_level1=1 eg4_level2=1 eg4_level3=1 eg4_level4=1 eg4_level5=1
<region>sample=../Sample/Wave87.wav lokey=50 hikey=50 pitch_keycenter=66 tune=545 loop_mode=one_shot pan=0 eg2_cutoff=4864 eg2_sustain=4 eg2_time1=0 eg2_time2=0 eg2_time3=0.0489896 eg2_time4=0 eg2_time5=0 eg2_level1=0 eg2_level2=1 eg2_level3=0.9055118 eg2_level4=0.9055118 eg2_level5=1 eg3_amplitude=100 eg3_sustain=4 eg3_time1=0 eg3_time2=0 eg3_time3=0.0292813 eg3_time4=0.188009 eg3_time5=0.188009 eg3_level1=0 eg3_level2=1 eg3_level3=0.9117225 eg3_level4=0 eg3_level5=0 amplitude_cc16=83.4645669 ampeg_attack=0 ampeg_release=0.188009 eg4_time1=0 eg4_time2=0 eg4_time3=0.0292813 eg4_time4=0.188009 eg4_time5=0.188009 eg4_level1=1 eg4_level2=1 eg4_level3=1 eg4_level4=1 eg4_level5=1
<region>sample=../Sample/Wave87.wav lokey=51 hikey=51 pitch_keycenter=66 tune=495 loop_mode=one_shot pan=0 eg2_cutoff=4864 eg2_sustain=4 eg2_time1=0 eg2_time2=0 eg2_time3=0.0489896 eg2_time4=0 eg2_time5=0 eg2_level1=0 eg2_level2=1 eg2_level3=0.9055118 eg2_level4=0.9055118 eg2_level5=1 eg3_amplitude=100 eg3_sustain=4 eg3_time1=0 eg3_time2=0 eg3_time3=0.028641 eg3_time4=0.1838979 eg3_time5=0.1838979 eg3_level1=0 eg3_level2=1 eg3_level3=0.9117225 eg3_level4=0 eg3_level5=0 amplitude_cc16=83.4645669 ampeg_attack=0 ampeg_release=0.1838979 eg4_time1=0 eg4_time2=0 eg4_time3=0.028641 eg4_time4=0.1838979 eg4_time5=0.1838979 eg4_level1=1 eg4_level2=1 eg4_level3=1 eg4_level4=1 eg4_level5=1
<region>sample=../Sample/Wave87.wav lokey=52 hikey=52 pitch_keycenter=66 tune=445 loop_mode=one_shot pan=0 eg2_cutoff=4864 eg2_sustain=4 eg2_time1=0 eg2_time2=0 eg2_time3=0.0489896 eg2_time4=0 eg2_time5=0 eg2_level1=0 eg2_level2=1 eg2_level3=0.9055118 eg2_level4=0.9055118 eg2_level5=1 eg3_amplitude=100 eg3_sustain=4 eg3_time1=0 eg3_time2=0 eg3_time3=0.0280147 eg3_time4=0.1798766 eg3_time5=0.1798766 eg3_level1=0 eg3_level2=1 eg3_level3=0.9117225 eg3_level4=0 eg3_level5=0 amplitude_cc16=83.4645669 ampeg_attack=0 ampeg_release=0.1798766 eg4_time1=0 eg4_time2=0 eg4_time3=0.0280147 eg4_time4=0.1798766 eg4_time5=0.1798766 eg4_level1=1 eg4_level2=1 eg4_level3=1 eg4_level4=1 eg4_level5=1
<region>sample=../Sample/Wave87.wav lokey=53 hikey=53 pitch_keycenter=66 tune=395 loop_mode=one_shot pan=0 eg2_cutoff=4864 eg2_sustain=4 eg2_time1=0 eg2_time2=0 eg2_time3=0.0489896 eg2_time4=0 eg2_time5=0 eg2_level1=0 eg2_level2=1 eg2_level3=0.9055118 eg2_level4=0.9055118 eg2_level5=1 eg3_amplitude=100 eg3_sustain=4 eg3_time1=0 eg3_time2=0 eg3_time3=0.0274021 eg3_time4=0.1759433 eg3_time5=0.1759433 eg3_level1=0 eg3_level2=1 eg3_level3=0.9117225 eg3_level4=0 eg3_level5=0 amplitude_cc16=83.4645669 ampeg_attack=0 ampeg_release=0.1759433 eg4_time1=0 eg4_time2=0 eg4_time3=0.0274021 eg4_time4=0.1759433 eg4_time5=0.1759433 eg4_level1=1 eg4_level2=1 eg4_level3=1 eg4_level4=1 eg4_level5=1
<region>sample=../Sample/Wave87.wav lokey=54 hikey=54 pitch_keycenter=66 tune=345 loop_mode=one_shot pan=0 eg2_cutoff=4864 eg2_sustain=4 eg2_time1=0 eg2_time2=0 eg2_time3=0.0489896 eg2_time4=0 eg2_time5=0 eg2_level1=0 eg2_level2=1 eg2_level3=0.9055118 eg2_level4=0.9055118 eg2_level5=1 eg3_amplitude=100 eg3_sustain=4 eg3_time1=0 eg3_time2=0 eg3_time3=0.0268029 eg3_time4=0.1720959 eg3_time5=0.1720959 eg3_level1=0 eg3_level2=1 eg3_level3=0.9117225 eg3_level4=0 eg3_level5=0 amplitude_cc16=83.4645669 ampeg_attack=0 ampeg_release=0.1720959 eg4_time1=0 eg4_time2=0 eg4_time3=0.0268029 eg4_time4=0.1720959 eg4_time5=0.1720959 eg4_level1=1 eg4_level2=1 eg4_level3=1 eg4_level4=1 eg4_level5=1
<region>sample=../Sample/Wave87.wav lokey=55 hikey=55 pitch_keycenter=66 tune=295 loop_mode=one_shot pan=0 eg2_cutoff=4864 eg2_sustain=4 eg2_time1=0 eg2_time2=0 eg2_time3=0.0489896 eg2_time4=0 eg2_time5=0 eg2_level1=0 eg2_level2=1 eg2_level3=0.9055118 eg2_level4=0.9055118 eg2_level5=1 eg3_amplitude=100 eg3_sustain=4 eg3_time1=0 eg3_time2=0 eg3_time3=0.0262168 eg3_time4=0.1683327 eg3_time5=0.1683327 eg3_level1=0 eg3_level2=1 eg3_level3=0.9117225 eg3_level4=0 eg3_level5=0 amplitude_cc16=83.4645669 ampeg_attack=0 ampeg_release=0.1683327 eg4_time1=0 eg4_time2=0 eg4_time3=0.0262168 eg4_time4=0.1683327 eg4_time5=0.1683327 eg4_level1=1 eg4_level2=1 eg4_level3=1 eg4_level4=1 eg4_level5=1
<region>sample=../Sample/Wave87.wav lokey=56 hikey=56 pitch_keycenter=66 tune=245 loop_mode=one_shot pan=0 eg2_cutoff=4864 eg2_sustain=4 eg2_time1=0 eg2_time2=0 eg2_time3=0.0489896 eg2_time4=0 eg2_time5=0 eg2_level1=0 eg2_level2=1 eg2_level3=0.9055118 eg2_level4=0.9055118 eg2_level5=1 eg3_amplitude=100 eg3_sustain=4 eg3_time1=0 eg3_time2=0 eg3_time3=0.0256435 eg3_time4=0.1646518 eg3_time5=0.1646518 eg3_level1=0 eg3_level2=1 eg3_level3=0.9117225 eg3_level4=0 eg3_level5=0 amplitude_cc16=83.4645669 ampeg_attack=0 ampeg_release=0.1646518 eg4_time1=0 eg4_time2=0 eg4_time3=0.0256435 eg4_time4=0.1646518 eg4_time5=0.1646518 eg4_level1=1 eg4_level2=1 eg4_level3=1 eg4_level4=1 eg4_level5=1
<region>sample=../Sample/Wave87.wav lokey=57 hikey=57 pitch_keycenter=66 tune=195 loop_mode=one_shot pan=0 eg2_cutoff=4864 eg2_sustain=4 eg2_time1=0 eg2_time2=0 eg2_time3=0.0489896 eg2_time4=0 eg2_time5=0 eg2_level1=0 eg2_level2=1 eg2_level3=0.9055118 eg2_level4=0.9055118 eg2_level5=1 eg3_amplitude=100 eg3_sustain=4 eg3_time1=0 eg3_time2=0 eg3_time3=0.0250828 eg3_time4=0.1610514 eg3_time5=0.1610514 eg3_level1=0 eg3_level2=1 eg3_level3=0.9117225 eg3_level4=0 eg3_level5=0 amplitude_cc16=83.4645669 ampeg_attack=0 ampeg_release=0.1610514 eg4_time1=0 eg4_time2=0 eg4_time3=0.0250828 eg4_time4=0.1610514 eg4_time5=0.1610514 eg4_level1=1 eg4_level2=1 eg4_level3=1 eg4_level4=1 eg4_level5=1
<region>sample=../Sample/Wave87.wav lokey=58 hikey=58 pitch_keycenter=66 tune=145 loop_mode=one_shot pan=0 eg2_cutoff=4864 eg2_sustain=4 eg2_time1=0 eg2_time2=0 eg2_time3=0.0489896 eg2_time4=0 eg2_time5=0 eg2_level1=0 eg2_level2=1 eg2_level3=0.9055118 eg2_level4=0.9055118 eg2_level5=1 eg3_amplitude=100 eg3_sustain=4 eg3_time1=0 eg3_time2=0 eg3_time3=0.0245343 eg3_time4=0.1575297 eg3_time5=0.1575297 eg3_level1=0 eg3_level2=1 eg3_level3=0.9117225 eg3_level4=0 eg3_level5=0 amplitude_cc16=83.4645669 ampeg_attack=0 ampeg_release=0.1575297 eg4_time1=0 eg4_time2=0 eg4_time3=0.0245343 eg4_time4=0.1575297 eg4_time5=0.1575297 eg4_level1=1 eg4_level2=1 eg4_level3=1 eg4_level4=1 eg4_level5=1
<region>sample=../Sample/Wave87.wav lokey=59 hikey=59 pitch_keycenter=66 tune=95 loop_mode=one_shot pan=0 eg2_cutoff=4864 eg2_sustain=4 eg2_time1=0 eg2_time2=0 eg2_time3=0.0489896 eg2_time4=0 eg2_time5=0 eg2_level1=0 eg2_level2=1 eg2_level3=0.9055118 eg2_level4=0.9055118 eg2_level5=1 eg3_amplitude=100 eg3_sustain=4 eg3_time1=0 eg3_time2=0 eg3_time3=0.0239978 eg3_time4=0.154085 eg3_time5=0.154085 eg3_level1=0 eg3_level2=1 eg3_level3=0.9117225 eg3_level4=0 eg3_level5=0 amplitude_cc16=83.4645669 ampeg_attack=0 ampeg_release=0.154085 eg4_time1=0 eg4_time2=0 eg4_time3=0.0239978 eg4_time4=0.154085 eg4_time5=0.154085 eg4_level1=1 eg4_level2=1 eg4_level3=1 eg4_level4=1 eg4_level5=1
<region>sample=../Sample/Wave87.wav lokey=60 hikey=60 pitch_keycenter=66 tune=45 loop_mode=one_shot pan=0 eg2_cutoff=4864 eg2_sustain=4 eg2_time1=0 eg2_time2=0 eg2_time3=0.0489896 eg2_time4=0 eg2_time5=0 eg2_level1=0 eg2_level2=1 eg2_level3=0.9055118 eg2_level4=0.9055118 eg2_level5=1 eg3_amplitude=100 eg3_sustain=4 eg3_time1=0 eg3_time2=0 eg3_time3=0.0234731 eg3_time4=0.1507156 eg3_time5=0.1507156 eg3_level1=0 eg3_level2=1 eg3_level3=0.9117225 eg3_level4=0 eg3_level5=0 amplitude_cc16=83.4645669 ampeg_attack=0 ampeg_release=0.1507156 eg4_time1=0 eg4_time2=0 eg4_time3=0.0234731 eg4_time4=0.1507156 eg4_time5=0.1507156 eg4_level1=1 eg4_level2=1 eg4_level3=1 eg4_level4=1 eg4_level5=1
<region>sample=../Sample/Wave87.wav lokey=61 hikey=61 pitch_keycenter=66 tune=-4 loop_mode=one_shot pan=0 eg2_cutoff=4864 eg2_sustain=4 eg2_time1=0 eg2_time2=0 eg2_time3=0.0489896 eg2_time4=0 eg2_time5=0 eg2_level1=0 eg2_level2=1 eg2_level3=0.9055118 eg2_level4=0.9055118 eg2_level5=1 eg3_amplitude=100 eg3_sustain=4 eg3_time1=0 eg3_time2=0 eg3_time3=0.0229598 eg3_time4=0.14742 eg3_time5=0.14742 eg3_level1=0 eg3_level2=1 eg3_level3=0.9117225 eg3_level4=0 eg3_level5=0 amplitude_cc16=83.4645669 ampeg_attack=0 ampeg_release=0.14742 eg4_time1=0 eg4_time2=0 eg4_time3=0.0229598 eg4_time4=0.14742 eg4_time5=0.14742 eg4_level1=1 eg4_level2=1 eg4_level3=1 eg4_level4=1 eg4_level5=1
<region>sample=../Sample/Wave87.wav lokey=62 hikey=62 pitch_keycenter=66 tune=-54 loop_mode=one_shot pan=0 eg2_cutoff=4864 eg2_sustain=4 eg2_time1=0 eg2_time2=0 eg2_time3=0.0489896 eg2_time4=0 eg2_time5=0 eg2_level1=0 eg2_level2=1 eg2_level3=0.9055118 eg2_level4=0.9055118 eg2_level5=1 eg3_amplitude=100 eg3_sustain=4 eg3_time1=0 eg3_time2=0 eg3_time3=0.0224577 eg3_time4=0.1441964 eg3_time5=0.1441964 eg3_level1=0 eg3_level2=1 eg3_level3=0.9117225 eg3_level4=0 eg3_level5=0 amplitude_cc16=83.4645669 ampeg_attack=0 ampeg_release=0.1441964 eg4_time1=0 eg4_time2=0 eg4_time3=0.0224577 eg4_time4=0.1441964 eg4_time5=0.1441964 eg4_level1=1 eg4_level2=1 eg4_level3=1 eg4_level4=1 eg4_level5=1
<region>sample=../Sample/Wave87.wav lokey=63 hikey=63 pitch_keycenter=66 tune=-104 loop_mode=one_shot pan=0 eg2_cutoff=4864 eg2_sustain=4 eg2_time1=0 eg2_time2=0 eg2_time3=0.0489896 eg2_time4=0 eg2_time5=0 eg2_level1=0 eg2_level2=1 eg2_level3=0.9055118 eg2_level4=0.9055118 eg2_level5=1 eg3_amplitude=100 eg3_sustain=4 eg3_time1=0 eg3_time2=0 eg3_time3=0.0219666 eg3_time4=0.1410432 eg3_time5=0.1410432 eg3_level1=0 eg3_level2=1 eg3_level3=0.9117225 eg3_level4=0 eg3_level5=0 amplitude_cc16=83.4645669 ampeg_attack=0 ampeg_release=0.1410432 eg4_time1=0 eg4_time2=0 eg4_time3=0.0219666 eg4_time4=0.1410432 eg4_time5=0.1410432 eg4_level1=1 eg4_level2=1 eg4_level3=1 eg4_level4=1 eg4_level5=1
<region>sample=../Sample/Wave87.wav lokey=64 hikey=64 pitch_keycenter=66 tune=-154 loop_mode=one_shot pan=0 eg2_cutoff=4864 eg2_sustain=4 eg2_time1=0 eg2_time2=0 eg2_time3=0.0489896 eg2_time4=0 eg2_time5=0 eg2_level1=0 eg2_level2=1 eg2_level3=0.9055118 eg2_level4=0.9055118 eg2_level5=1 eg3_amplitude=100 eg3_sustain=4 eg3_time1=0 eg3_time2=0 eg3_time3=0.0214863 eg3_time4=0.137959 eg3_time5=0.137959 eg3_level1=0 eg3_level2=1 eg3_level3=0.9117225 eg3_level4=0 eg3_level5=0 amplitude_cc16=83.4645669 ampeg_attack=0 ampeg_release=0.137959 eg4_time1=0 eg4_time2=0 eg4_time3=0.0214863 eg4_time4=0.137959 eg4_time5=0.137959 eg4_level1=1 eg4_level2=1 eg4_level3=1 eg4_level4=1 eg4_level5=1
<region>sample=../Sample/Wave87.wav lokey=65 hikey=65 pitch_keycenter=66 tune=-204 loop_mode=one_shot pan=0 eg2_cutoff=4864 eg2_sustain=4 eg2_time1=0 eg2_time2=0 eg2_time3=0.0489896 eg2_time4=0 eg2_time5=0 eg2_level1=0 eg2_level2=1 eg2_level3=0.9055118 eg2_level4=0.9055118 eg2_level5=1 eg3_amplitude=100 eg3_sustain=4 eg3_time1=0 eg3_time2=0 eg3_time3=0.0210165 eg3_time4=0.1349423 eg3_time5=0.1349423 eg3_level1=0 eg3_level2=1 eg3_level3=0.9117225 eg3_level4=0 eg3_level5=0 amplitude_cc16=83.4645669 ampeg_attack=0 ampeg_release=0.1349423 eg4_time1=0 eg4_time2=0 eg4_time3=0.0210165 eg4_time4=0.1349423 eg4_time5=0.1349423 eg4_level1=1 eg4_level2=1 eg4_level3=1 eg4_level4=1 eg4_level5=1
<region>sample=../Sample/Wave87.wav lokey=66 hikey=66 pitch_keycenter=66 tune=-254 loop_mode=one_shot pan=0 eg2_cutoff=4864 eg2_sustain=4 eg2_time1=0 eg2_time2=0 eg2_time3=0.0489896 eg2_time4=0 eg2_time5=0 eg2_level1=0 eg2_level2=1 eg2_level3=0.9055118 eg2_level4=0.9055118 eg2_level5=1 eg3_amplitude=100 eg3_sustain=4 eg3_time1=0 eg3_time2=0 eg3_time3=0.0205569 eg3_time4=0.1319915 eg3_time5=0.1319915 eg3_level1=0 eg3_level2=1 eg3_level3=0.9117225 eg3_level4=0 eg3_level5=0 amplitude_cc16=83.4645669 ampeg_attack=0 ampeg_release=0.1319915 eg4_time1=0 eg4_time2=0 eg4_time3=0.0205569 eg4_time4=0.1319915 eg4_time5=0.1319915 eg4_level1=1 eg4_level2=1 eg4_level3=1 eg4_level4=1 eg4_level5=1
<region>sample=../Sample/Wave87.wav lokey=67 hikey=67 pitch_keycenter=66 tune=-304 loop_mode=one_shot pan=0 eg2_cutoff=4864 eg2_sustain=4 eg2_time1=0 eg2_time2=0 eg2_time3=0.0489896 eg2_time4=0 eg2_time5=0 eg2_level1=0 eg2_level2=1 eg2_level3=0.9055118 eg2_level4=0.9055118 eg2_level5=1 eg3_amplitude=100 eg3_sustain=4 eg3_time1=0 eg3_time2=0 eg3_time3=0.0201074 eg3_time4=0.1291053 eg3_time5=0.1291053 eg3_level1=0 eg3_level2=1 eg3_level3=0.9117225 eg3_level4=0 eg3_level5=0 amplitude_cc16=83.4645669 ampeg_attack=0 ampeg_release=0.1291053 eg4_time1=0 eg4_time2=0 eg4_time3=0.0201074 eg4_time4=0.1291053 eg4_time5=0.1291053 eg4_level1=1 eg4_level2=1 eg4_level3=1 eg4_level4=1 eg4_level5=1
<region>sample=../Sample/Wave87.wav lokey=68 hikey=68 pitch_keycenter=66 tune=-354 loop_mode=one_shot pan=0 eg2_cutoff=4864 eg2_sustain=4 eg2_time1=0 eg2_time2=0 eg2_time3=0.0489896 eg2_time4=0 eg2_time5=0 eg2_level1=0 eg2_level2=1 eg2_level3=0.9055118 eg2_level4=0.9055118 eg2_level5=1 eg3_amplitude=100 eg3_sustain=4 eg3_time1=0 eg3_time2=0 eg3_time3=0.0196677 eg3_time4=0.1262822 eg3_time5=0.1262822 eg3_level1=0 eg3_level2=1 eg3_level3=0.9117225 eg3_level4=0 eg3_level5=0 amplitude_cc16=83.4645669 ampeg_attack=0 ampeg_release=0.1262822 eg4_time1=0 eg4_time2=0 eg4_time3=0.0196677 eg4_time4=0.1262822 eg4_time5=0.1262822 eg4_level1=1 eg4_level2=1 eg4_level3=1 eg4_level4=1 eg4_level5=1
<region>sample=../Sample/Wave87.wav lokey=69 hikey=69 pitch_keycenter=66 tune=-404 loop_mode=one_shot pan=0 eg2_cutoff=4864 eg2_sustain=4 eg2_time1=0 eg2_time2=0 eg2_time3=0.0489896 eg2_time4=0 eg2_time5=0 eg2_level1=0 eg2_level2=1 eg2_level3=0.9055118 eg2_level4=0.9055118 eg2_level5=1 eg3_amplitude=100 eg3_sustain=4 eg3_time1=0 eg3_time2=0 eg3_time3=0.0192376 eg3_time4=0.1235208 eg3_time5=0.1235208 eg3_level1=0 eg3_level2=1 eg3_level3=0.9117225 eg3_level4=0 eg3_level5=0 amplitude_cc16=83.4645669 ampeg_attack=0 ampeg_release=0.1235208 eg4_time1=0 eg4_time2=0 eg4_time3=0.0192376 eg4_time4=0.1235208 eg4_time5=0.1235208 eg4_level1=1 eg4_level2=1 eg4_level3=1 eg4_level4=1 eg4_level5=1
<region>sample=../Sample/Wave87.wav lokey=70 hikey=70 pitch_keycenter=66 tune=-454 loop_mode=one_shot pan=0 eg2_cutoff=4864 eg2_sustain=4 eg2_time1=0 eg2_time2=0 eg2_time3=0.0489896 eg2_time4=0 eg2_time5=0 eg2_level1=0 eg2_level2=1 eg2_level3=0.9055118 eg2_level4=0.9055118 eg2_level5=1 eg3_amplitude=100 eg3_sustain=4 eg3_time1=0 eg3_time2=0 eg3_time3=0.0188169 eg3_time4=0.1208198 eg3_time5=0.1208198 eg3_level1=0 eg3_level2=1 eg3_level3=0.9117225 eg3_level4=0 eg3_level5=0 amplitude_cc16=83.4645669 ampeg_attack=0 ampeg_release=0.1208198 eg4_time1=0 eg4_time2=0 eg4_time3=0.0188169 eg4_time4=0.1208198 eg4_time5=0.1208198 eg4_level1=1 eg4_level2=1 eg4_level3=1 eg4_level4=1 eg4_level5=1
<region>sample=../Sample/Wave87.wav lokey=71 hikey=71 pitch_keycenter=66 tune=-504 loop_mode=one_shot pan=0 eg2_cutoff=4864 eg2_sustain=4 eg2_time1=0 eg2_time2=0 eg2_time3=0.0489896 eg2_time4=0 eg2_time5=0 eg2_level1=0 eg2_level2=1 eg2_level3=0.9055118 eg2_level4=0.9055118 eg2_level5=1 eg3_amplitude=100 eg3_sustain=4 eg3_time1=0 eg3_time2=0 eg3_time3=0.0184055 eg3_time4=0.1181778 eg3_time5=0.1181778 eg3_level1=0 eg3_level2=1 eg3_level3=0.9117225 eg3_level4=0 eg3_level5=0 amplitude_cc16=83.4645669 ampeg_attack=0 ampeg_release=0.1181778 eg4_time1=0 eg4_time2=0 eg4_time3=0.0184055 eg4_time4=0.1181778 eg4_time5=0.1181778 eg4_level1=1 eg4_level2=1 eg4_level3=1 eg4_level4=1 eg4_level5=1
<region>sample=../Sample/Wave87.wav lokey=72 hikey=72 pitch_keycenter=66 tune=-554 loop_mode=one_shot pan=0 eg2_cutoff=4864 eg2_sustain=4 eg2_time1=0 eg2_time2=0 eg2_time3=0.0489896 eg2_time4=0 eg2_time5=0 eg2_level1=0 eg2_level2=1 eg2_level3=0.9055118 eg2_level4=0.9055118 eg2_level5=1 eg3_amplitude=100 eg3_sustain=4 eg3_time1=0 eg3_time2=0 eg3_time3=0.018003 eg3_time4=0.1155936 eg3_time5=0.1155936 eg3_level1=0 eg3_level2=1 eg3_level3=0.9117225 eg3_level4=0 eg3_level5=0 amplitude_cc16=83.4645669 ampeg_attack=0 ampeg_release=0.1155936 eg4_time1=0 eg4_time2=0 eg4_time3=0.018003 eg4_time4=0.1155936 eg4_time5=0.1155936 eg4_level1=1 eg4_level2=1 eg4_level3=1 eg4_level4=1 eg4_level5=1
<region>sample=../Sample/Wave87.wav lokey=73 hikey=73 pitch_keycenter=66 tune=-604 loop_mode=one_shot pan=0 eg2_cutoff=4864 eg2_sustain=4 eg2_time1=0 eg2_time2=0 eg2_time3=0.0489896 eg2_time4=0 eg2_time5=0 eg2_level1=0 eg2_level2=1 eg2_level3=0.9055118 eg2_level4=0.9055118 eg2_level5=1 eg3_amplitude=100 eg3_sustain=4 eg3_time1=0 eg3_time2=0 eg3_time3=0.0176093 eg3_time4=0.113066 eg3_time5=0.113066 eg3_level1=0 eg3_level2=1 eg3_level3=0.9117225 eg3_level4=0 eg3_level5=0 amplitude_cc16=83.4645669 ampeg_attack=0 ampeg_release=0.113066 eg4_time1=0 eg4_time2=0 eg4_time3=0.0176093 eg4_time4=0.113066 eg4_time5=0.113066 eg4_level1=1 eg4_level2=1 eg4_level3=1 eg4_level4=1 eg4_level5=1
<region>sample=../Sample/Wave87.wav lokey=74 hikey=74 pitch_keycenter=66 tune=-654 loop_mode=one_shot pan=0 eg2_cutoff=4864 eg2_sustain=4 eg2_time1=0 eg2_time2=0 eg2_time3=0.0489896 eg2_time4=0 eg2_time5=0 eg2_level1=0 eg2_level2=1 eg2_level3=0.9055118 eg2_level4=0.9055118 eg2_level5=1 eg3_amplitude=100 eg3_sustain=4 eg3_time1=0 eg3_time2=0 eg3_time3=0.0172243 eg3_time4=0.1105936 eg3_time5=0.1105936 eg3_level1=0 eg3_level2=1 eg3_level3=0.9117225 eg3_level4=0 eg3_level5=0 amplitude_cc16=83.4645669 ampeg_attack=0 ampeg_release=0.1105936 eg4_time1=0 eg4_time2=0 eg4_time3=0.0172243 eg4_time4=0.1105936 eg4_time5=0.1105936 eg4_level1=1 eg4_level2=1 eg4_level3=1 eg4_level4=1 eg4_level5=1
<region>sample=../Sample/Wave87.wav lokey=75 hikey=75 pitch_keycenter=66 tune=-704 loop_mode=one_shot pan=0 eg2_cutoff=4864 eg2_sustain=4 eg2_time1=0 eg2_time2=0 eg2_time3=0.0489896 eg2_time4=0 eg2_time5=0 eg2_level1=0 eg2_level2=1 eg2_level3=0.9055118 eg2_level4=0.9055118 eg2_level5=1 eg3_amplitude=100 eg3_sustain=4 eg3_time1=0 eg3_time2=0 eg3_time3=0.0168476 eg3_time4=0.1081752 eg3_time5=0.1081752 eg3_level1=0 eg3_level2=1 eg3_level3=0.9117225 eg3_level4=0 eg3_level5=0 amplitude_cc16=83.4645669 ampeg_attack=0 ampeg_release=0.1081752 eg4_time1=0 eg4_time2=0 eg4_time3=0.0168476 eg4_time4=0.1081752 eg4_time5=0.1081752 eg4_level1=1 eg4_level2=1 eg4_level3=1 eg4_level4=1 eg4_level5=1
<region>sample=../Sample/Wave87.wav lokey=76 hikey=76 pitch_keycenter=66 tune=-754 loop_mode=one_shot pan=0 eg2_cutoff=4864 eg2_sustain=4 eg2_time1=0 eg2_time2=0 eg2_time3=0.0489896 eg2_time4=0 eg2_time5=0 eg2_level1=0 eg2_level2=1 eg2_level3=0.9055118 eg2_level4=0.9055118 eg2_level5=1 eg3_amplitude=100 eg3_sustain=4 eg3_time1=0 eg3_time2=0 eg3_time3=0.0164792 eg3_time4=0.1058098 eg3_time5=0.1058098 eg3_level1=0 eg3_level2=1 eg3_level3=0.9117225 eg3_level4=0 eg3_level5=0 amplitude_cc16=83.4645669 ampeg_attack=0 ampeg_release=0.1058098 eg4_time1=0 eg4_time2=0 eg4_time3=0.0164792 eg4_time4=0.1058098 eg4_time5=0.1058098 eg4_level1=1 eg4_level2=1 eg4_level3=1 eg4_level4=1 eg4_level5=1
<region>sample=../Sample/Wave87.wav lokey=77 hikey=77 pitch_keycenter=66 tune=-804 loop_mode=one_shot pan=0 eg2_cutoff=4864 eg2_sustain=4 eg2_time1=0 eg2_time2=0 eg2_time3=0.0489896 eg2_time4=0 eg2_time5=0 eg2_level1=0 eg2_level2=1 eg2_level3=0.9055118 eg2_level4=0.9055118 eg2_level5=1 eg3_amplitude=100 eg3_sustain=4 eg3_time1=0 eg3_time2=0 eg3_time3=0.0161189 eg3_time4=0.103496 eg3_time5=0.103496 eg3_level1=0 eg3_level2=1 eg3_level3=0.9117225 eg3_level4=0 eg3_level5=0 amplitude_cc16=83.4645669 ampeg_attack=0 ampeg_release=0.103496 eg4_time1=0 eg4_time2=0 eg4_time3=0.0161189 eg4_time4=0.103496 eg4_time5=0.103496 eg4_level1=1 eg4_level2=1 eg4_level3=1 eg4_level4=1 eg4_level5=1
<region>sample=../Sample/Wave87.wav lokey=78 hikey=78 pitch_keycenter=66 tune=-854 loop_mode=one_shot pan=0 eg2_cutoff=4864 eg2_sustain=4 eg2_time1=0 eg2_time2=0 eg2_time3=0.0489896 eg2_time4=0 eg2_time5=0 eg2_level1=0 eg2_level2=1 eg2_level3=0.9055118 eg2_level4=0.9055118 eg2_level5=1 eg3_amplitude=100 eg3_sustain=4 eg3_time1=0 eg3_time2=0 eg3_time3=0.0157664 eg3_time4=0.1012329 eg3_time5=0.1012329 eg3_level1=0 eg3_level2=1 eg3_level3=0.9117225 eg3_level4=0 eg3_level5=0 amplitude_cc16=83.4645669 ampeg_attack=0 ampeg_release=0.1012329 eg4_time1=0 eg4_time2=0 eg4_time3=0.0157664 eg4_time4=0.1012329 eg4_time5=0.1012329 eg4_level1=1 eg4_level2=1 eg4_level3=1 eg4_level4=1 eg4_level5=1
<region>sample=../Sample/Wave87.wav lokey=79 hikey=79 pitch_keycenter=66 tune=-904 loop_mode=one_shot pan=0 eg2_cutoff=4864 eg2_sustain=4 eg2_time1=0 eg2_time2=0 eg2_time3=0.0489896 eg2_time4=0 eg2_time5=0 eg2_level1=0 eg2_level2=1 eg2_level3=0.9055118 eg2_level4=0.9055118 eg2_level5=1 eg3_amplitude=100 eg3_sustain=4 eg3_time1=0 eg3_time2=0 eg3_time3=0.0154216 eg3_time4=0.0990192 eg3_time5=0.0990192 eg3_level1=0 eg3_level2=1 eg3_level3=0.9117225 eg3_level4=0 eg3_level5=0 amplitude_cc16=83.4645669 ampeg_attack=0 ampeg_release=0.0990192 eg4_time1=0 eg4_time2=0 eg4_time3=0.0154216 eg4_time4=0.0990192 eg4_time5=0.0990192 eg4_level1=1 eg4_level2=1 eg4_level3=1 eg4_level4=1 eg4_level5=1
<region>sample=../Sample/Wave87.wav lokey=80 hikey=80 pitch_keycenter=66 tune=-954 loop_mode=one_shot pan=0 eg2_cutoff=4864 eg2_sustain=4 eg2_time1=0 eg2_time2=0 eg2_time3=0.0489896 eg2_time4=0 eg2_time5=0 eg2_level1=0 eg2_level2=1 eg2_level3=0.9055118 eg2_level4=0.9055118 eg2_level5=1 eg3_amplitude=100 eg3_sustain=4 eg3_time1=0 eg3_time2=0 eg3_time3=0.0150844 eg3_time4=0.096854 eg3_time5=0.096854 eg3_level1=0 eg3_level2=1 eg3_level3=0.9117225 eg3_level4=0 eg3_level5=0 amplitude_cc16=83.4645669 ampeg_attack=0 ampeg_release=0.096854 eg4_time1=0 eg4_time2=0 eg4_time3=0.0150844 eg4_time4=0.096854 eg4_time5=0.096854 eg4_level1=1 eg4_level2=1 eg4_level3=1 eg4_level4=1 eg4_level5=1
<region>sample=../Sample/Wave87.wav lokey=81 hikey=81 pitch_keycenter=66 tune=-1004 loop_mode=one_shot pan=0 eg2_cutoff=4864 eg2_sustain=4 eg2_time1=0 eg2_time2=0 eg2_time3=0.0489896 eg2_time4=0 eg2_time5=0 eg2_level1=0 eg2_level2=1 eg2_level3=0.9055118 eg2_level4=0.9055118 eg2_level5=1 eg3_amplitude=100 eg3_sustain=4 eg3_time1=0 eg3_time2=0 eg3_time3=0.0147546 eg3_time4=0.0947361 eg3_time5=0.0947361 eg3_level1=0 eg3_level2=1 eg3_level3=0.9117225 eg3_level4=0 eg3_level5=0 amplitude_cc16=83.4645669 ampeg_attack=0 ampeg_release=0.0947361 eg4_time1=0 eg4_time2=0 eg4_time3=0.0147546 eg4_time4=0.0947361 eg4_time5=0.0947361 eg4_level1=1 eg4_level2=1 eg4_level3=1 eg4_level4=1 eg4_level5=1
<region>sample=../Sample/Wave87.wav lokey=82 hikey=82 pitch_keycenter=66 tune=-1054 loop_mode=one_shot pan=0 eg2_cutoff=4864 eg2_sustain=4 eg2_time1=0 eg2_time2=0 eg2_time3=0.0489896 eg2_time4=0 eg2_time5=0 eg2_level1=0 eg2_level2=1 eg2_level3=0.9055118 eg2_level4=0.9055118 eg2_level5=1 eg3_amplitude=100 eg3_sustain=4 eg3_time1=0 eg3_time2=0 eg3_time3=0.0144319 eg3_time4=0.0926645 eg3_time5=0.0926645 eg3_level1=0 eg3_level2=1 eg3_level3=0.9117225 eg3_level4=0 eg3_level5=0 amplitude_cc16=83.4645669 ampeg_attack=0 ampeg_release=0.0926645 eg4_time1=0 eg4_time2=0 eg4_time3=0.0144319 eg4_time4=0.0926645 eg4_time5=0.0926645 eg4_level1=1 eg4_level2=1 eg4_level3=1 eg4_level4=1 eg4_level5=1
<region>sample=../Sample/Wave87.wav lokey=83 hikey=83 pitch_keycenter=66 tune=-1104 loop_mode=one_shot pan=0 eg2_cutoff=4864 eg2_sustain=4 eg2_time1=0 eg2_time2=0 eg2_time3=0.0489896 eg2_time4=0 eg2_time5=0 eg2_level1=0 eg2_level2=1 eg2_level3=0.9055118 eg2_level4=0.9055118 eg2_level5=1 eg3_amplitude=100 eg3_sustain=4 eg3_time1=0 eg3_time2=0 eg3_time3=0.0141164 eg3_time4=0.0906382 eg3_time5=0.0906382 eg3_level1=0 eg3_level2=1 eg3_level3=0.9117225 eg3_level4=0 eg3_level5=0 amplitude_cc16=83.4645669 ampeg_attack=0 ampeg_release=0.0906382 eg4_time1=0 eg4_time2=0 eg4_time3=0.0141164 eg4_time4=0.0906382 eg4_time5=0.0906382 eg4_level1=1 eg4_level2=1 eg4_level3=1 eg4_level4=1 eg4_level5=1
<region>sample=../Sample/Wave87.wav lokey=84 hikey=84 pitch_keycenter=66 tune=-1154 loop_mode=one_shot pan=0 eg2_cutoff=4864 eg2_sustain=4 eg2_time1=0 eg2_time2=0 eg2_time3=0.0489896 eg2_time4=0 eg2_time5=0 eg2_level1=0 eg2_level2=1 eg2_level3=0.9055118 eg2_level4=0.9055118 eg2_level5=1 eg3_amplitude=100 eg3_sustain=4 eg3_time1=0 eg3_time2=0 eg3_time3=0.0138077 eg3_time4=0.0886563 eg3_time5=0.0886563 eg3_level1=0 eg3_level2=1 eg3_level3=0.9117225 eg3_level4=0 eg3_level5=0 amplitude_cc16=83.4645669 ampeg_attack=0 ampeg_release=0.0886563 eg4_time1=0 eg4_time2=0 eg4_time3=0.0138077 eg4_time4=0.0886563 eg4_time5=0.0886563 eg4_level1=1 eg4_level2=1 eg4_level3=1 eg4_level4=1 eg4_level5=1
<region>sample=../Sample/Wave87.wav lokey=85 hikey=85 pitch_keycenter=66 tune=-1204 loop_mode=one_shot pan=0 eg2_cutoff=4864 eg2_sustain=4 eg2_time1=0 eg2_time2=0 eg2_time3=0.0489896 eg2_time4=0 eg2_time5=0 eg2_level1=0 eg2_level2=1 eg2_level3=0.9055118 eg2_level4=0.9055118 eg2_level5=1 eg3_amplitude=100 eg3_sustain=4 eg3_time1=0 eg3_time2=0 eg3_time3=0.0135057 eg3_time4=0.0867176 eg3_time5=0.0867176 eg3_level1=0 eg3_level2=1 eg3_level3=0.9117225 eg3_level4=0 eg3_level5=0 amplitude_cc16=83.4645669 ampeg_attack=0 ampeg_release=0.0867176 eg4_time1=0 eg4_time2=0 eg4_time3=0.0135057 eg4_time4=0.0867176 eg4_time5=0.0867176 eg4_level1=1 eg4_level2=1 eg4_level3=1 eg4_level4=1 eg4_level5=1
<region>sample=../Sample/Wave87.wav lokey=86 hikey=86 pitch_keycenter=66 tune=-1254 loop_mode=one_shot pan=0 eg2_cutoff=4864 eg2_sustain=4 eg2_time1=0 eg2_time2=0 eg2_time3=0.0489896 eg2_time4=0 eg2_time5=0 eg2_level1=0 eg2_level2=1 eg2_level3=0.9055118 eg2_level4=0.9055118 eg2_level5=1 eg3_amplitude=100 eg3_sustain=4 eg3_time1=0 eg3_time2=0 eg3_time3=0.0132104 eg3_time4=0.0848214 eg3_time5=0.0848214 eg3_level1=0 eg3_level2=1 eg3_level3=0.9117225 eg3_level4=0 eg3_level5=0 amplitude_cc16=83.4645669 ampeg_attack=0 ampeg_release=0.0848214 eg4_time1=0 eg4_time2=0 eg4_time3=0.0132104 eg4_time4=0.0848214 eg4_time5=0.0848214 eg4_level1=1 eg4_level2=1 eg4_level3=1 eg4_level4=1 eg4_level5=1
<region>sample=../Sample/Wave87.wav lokey=87 hikey=87 pitch_keycenter=66 tune=-1304 loop_mode=one_shot pan=0 eg2_cutoff=4864 eg2_sustain=4 eg2_time1=0 eg2_time2=0 eg2_time3=0.0489896 eg2_time4=0 eg2_time5=0 eg2_level1=0 eg2_level2=1 eg2_level3=0.9055118 eg2_level4=0.9055118 eg2_level5=1 eg3_amplitude=100 eg3_sustain=4 eg3_time1=0 eg3_time2=0 eg3_time3=0.0129215 eg3_time4=0.0829666 eg3_time5=0.0829666 eg3_level1=0 eg3_level2=1 eg3_level3=0.9117225 eg3_level4=0 eg3_level5=0 amplitude_cc16=83.4645669 ampeg_attack=0 ampeg_release=0.0829666 eg4_time1=0 eg4_time2=0 eg4_time3=0.0129215 eg4_time4=0.0829666 eg4_time5=0.0829666 eg4_level1=1 eg4_level2=1 eg4_level3=1 eg4_level4=1 eg4_level5=1
<region>sample=../Sample/Wave87.wav lokey=88 hikey=88 pitch_keycenter=66 tune=-1354 loop_mode=one_shot pan=0 eg2_cutoff=4864 eg2_sustain=4 eg2_time1=0 eg2_time2=0 eg2_time3=0.0489896 eg2_time4=0 eg2_time5=0 eg2_level1=0 eg2_level2=1 eg2_level3=0.9055118 eg2_level4=0.9055118 eg2_level5=1 eg3_amplitude=100 eg3_sustain=4 eg3_time1=0 eg3_time2=0 eg3_time3=0.012639 eg3_time4=0.0811524 eg3_time5=0.0811524 eg3_level1=0 eg3_level2=1 eg3_level3=0.9117225 eg3_level4=0 eg3_level5=0 amplitude_cc16=83.4645669 ampeg_attack=0 ampeg_release=0.0811524 eg4_time1=0 eg4_time2=0 eg4_time3=0.012639 eg4_time4=0.0811524 eg4_time5=0.0811524 eg4_level1=1 eg4_level2=1 eg4_level3=1 eg4_level4=1 eg4_level5=1
<region>sample=../Sample/Wave87.wav lokey=89 hikey=89 pitch_keycenter=66 tune=-1404 loop_mode=one_shot pan=0 eg2_cutoff=4864 eg2_sustain=4 eg2_time1=0 eg2_time2=0 eg2_time3=0.0489896 eg2_time4=0 eg2_time5=0 eg2_level1=0 eg2_level2=1 eg2_level3=0.9055118 eg2_level4=0.9055118 eg2_level5=1 eg3_amplitude=100 eg3_sustain=4 eg3_time1=0 eg3_time2=0 eg3_time3=0.0123626 eg3_time4=0.0793778 eg3_time5=0.0793778 eg3_level1=0 eg3_level2=1 eg3_level3=0.9117225 eg3_level4=0 eg3_level5=0 amplitude_cc16=83.4645669 ampeg_attack=0 ampeg_release=0.0793778 eg4_time1=0 eg4_time2=0 eg4_time3=0.0123626 eg4_time4=0.0793778 eg4_time5=0.0793778 eg4_level1=1 eg4_level2=1 eg4_level3=1 eg4_level4=1 eg4_level5=1
<region>sample=../Sample/Wave87.wav lokey=90 hikey=90 pitch_keycenter=66 tune=-1454 loop_mode=one_shot pan=0 eg2_cutoff=4864 eg2_sustain=4 eg2_time1=0 eg2_time2=0 eg2_time3=0.0489896 eg2_time4=0 eg2_time5=0 eg2_level1=0 eg2_level2=1 eg2_level3=0.9055118 eg2_level4=0.9055118 eg2_level5=1 eg3_amplitude=100 eg3_sustain=4 eg3_time1=0 eg3_time2=0 eg3_time3=0.0120923 eg3_time4=0.0776421 eg3_time5=0.0776421 eg3_level1=0 eg3_level2=1 eg3_level3=0.9117225 eg3_level4=0 eg3_level5=0 amplitude_cc16=83.4645669 ampeg_attack=0 ampeg_release=0.0776421 eg4_time1=0 eg4_time2=0 eg4_time3=0.0120923 eg4_time4=0.0776421 eg4_time5=0.0776421 eg4_level1=1 eg4_level2=1 eg4_level3=1 eg4_level4=1 eg4_level5=1
<region>sample=../Sample/Wave87.wav lokey=91 hikey=91 pitch_keycenter=66 tune=-1504 loop_mode=one_shot pan=0 eg2_cutoff=4864 eg2_sustain=4 eg2_time1=0 eg2_time2=0 eg2_time3=0.0489896 eg2_time4=0 eg2_time5=0 eg2_level1=0 eg2_level2=1 eg2_level3=0.9055118 eg2_level4=0.9055118 eg2_level5=1 eg3_amplitude=100 eg3_sustain=4 eg3_time1=0 eg3_time2=0 eg3_time3=0.0118279 eg3_time4=0.0759443 eg3_time5=0.0759443 eg3_level1=0 eg3_level2=1 eg3_level3=0.9117225 eg3_level4=0 eg3_level5=0 amplitude_cc16=83.4645669 ampeg_attack=0 ampeg_release=0.0759443 eg4_time1=0 eg4_time2=0 eg4_time3=0.0118279 eg4_time4=0.0759443 eg4_time5=0.0759443 eg4_level1=1 eg4_level2=1 eg4_level3=1 eg4_level4=1 eg4_level5=1
<region>sample=../Sample/Wave87.wav lokey=92 hikey=92 pitch_keycenter=66 tune=-1554 loop_mode=one_shot pan=0 eg2_cutoff=4864 eg2_sustain=4 eg2_time1=0 eg2_time2=0 eg2_time3=0.0489896 eg2_time4=0 eg2_time5=0 eg2_level1=0 eg2_level2=1 eg2_level3=0.9055118 eg2_level4=0.9055118 eg2_level5=1 eg3_amplitude=100 eg3_sustain=4 eg3_time1=0 eg3_time2=0 eg3_time3=0.0115692 eg3_time4=0.0742836 eg3_time5=0.0742836 eg3_level1=0 eg3_level2=1 eg3_level3=0.9117225 eg3_level4=0 eg3_level5=0 amplitude_cc16=83.4645669 ampeg_attack=0 ampeg_release=0.0742836 eg4_time1=0 eg4_time2=0 eg4_time3=0.0115692 eg4_time4=0.0742836 eg4_time5=0.0742836 eg4_level1=1 eg4_level2=1 eg4_level3=1 eg4_level4=1 eg4_level5=1
<region>sample=../Sample/Wave87.wav lokey=93 hikey=93 pitch_keycenter=66 tune=-1604 loop_mode=one_shot pan=0 eg2_cutoff=4864 eg2_sustain=4 eg2_time1=0 eg2_time2=0 eg2_time3=0.0489896 eg2_time4=0 eg2_time5=0 eg2_level1=0 eg2_level2=1 eg2_level3=0.9055118 eg2_level4=0.9055118 eg2_level5=1 eg3_amplitude=100 eg3_sustain=4 eg3_time1=0 eg3_time2=0 eg3_time3=0.0113162 eg3_time4=0.0726593 eg3_time5=0.0726593 eg3_level1=0 eg3_level2=1 eg3_level3=0.9117225 eg3_level4=0 eg3_level5=0 amplitude_cc16=83.4645669 ampeg_attack=0 ampeg_release=0.0726593 eg4_time1=0 eg4_time2=0 eg4_time3=0.0113162 eg4_time4=0.0726593 eg4_time5=0.0726593 eg4_level1=1 eg4_level2=1 eg4_level3=1 eg4_level4=1 eg4_level5=1
<region>sample=../Sample/Wave87.wav lokey=94 hikey=94 pitch_keycenter=66 tune=-1654 loop_mode=one_shot pan=0 eg2_cutoff=4864 eg2_sustain=4 eg2_time1=0 eg2_time2=0 eg2_time3=0.0489896 eg2_time4=0 eg2_time5=0 eg2_level1=0 eg2_level2=1 eg2_level3=0.9055118 eg2_level4=0.9055118 eg2_level5=1 eg3_amplitude=100 eg3_sustain=4 eg3_time1=0 eg3_time2=0 eg3_time3=0.0110688 eg3_time4=0.0710704 eg3_time5=0.0710704 eg3_level1=0 eg3_level2=1 eg3_level3=0.9117225 eg3_level4=0 eg3_level5=0 amplitude_cc16=83.4645669 ampeg_attack=0 ampeg_release=0.0710704 eg4_time1=0 eg4_time2=0 eg4_time3=0.0110688 eg4_time4=0.0710704 eg4_time5=0.0710704 eg4_level1=1 eg4_level2=1 eg4_level3=1 eg4_level4=1 eg4_level5=1
<region>sample=../Sample/Wave87.wav lokey=95 hikey=95 pitch_keycenter=66 tune=-1704 loop_mode=one_shot pan=0 eg2_cutoff=4864 eg2_sustain=4 eg2_time1=0 eg2_time2=0 eg2_time3=0.0489896 eg2_time4=0 eg2_time5=0 eg2_level1=0 eg2_level2=1 eg2_level3=0.9055118 eg2_level4=0.9055118 eg2_level5=1 eg3_amplitude=100 eg3_sustain=4 eg3_time1=0 eg3_time2=0 eg3_time3=0.0108268 eg3_time4=0.0695164 eg3_time5=0.0695164 eg3_level1=0 eg3_level2=1 eg3_level3=0.9117225 eg3_level4=0 eg3_level5=0 amplitude_cc16=83.4645669 ampeg_attack=0 ampeg_release=0.0695164 eg4_time1=0 eg4_time2=0 eg4_time3=0.0108268 eg4_time4=0.0695164 eg4_time5=0.0695164 eg4_level1=1 eg4_level2=1 eg4_level3=1 eg4_level4=1 eg4_level5=1
<region>sample=../Sample/Wave87.wav lokey=96 hikey=96 pitch_keycenter=66 tune=-1754 loop_mode=one_shot pan=0 eg2_cutoff=4864 eg2_sustain=4 eg2_time1=0 eg2_time2=0 eg2_time3=0.0489896 eg2_time4=0 eg2_time5=0 eg2_level1=0 eg2_level2=1 eg2_level3=0.9055118 eg2_level4=0.9055118 eg2_level5=1 eg3_amplitude=100 eg3_sustain=4 eg3_time1=0 eg3_time2=0 eg3_time3=0.01059 eg3_time4=0.0679963 eg3_time5=0.0679963 eg3_level1=0 eg3_level2=1 eg3_level3=0.9117225 eg3_level4=0 eg3_level5=0 amplitude_cc16=83.4645669 ampeg_attack=0 ampeg_release=0.0679963 eg4_time1=0 eg4_time2=0 eg4_time3=0.01059 eg4_time4=0.0679963 eg4_time5=0.0679963 eg4_level1=1 eg4_level2=1 eg4_level3=1 eg4_level4=1 eg4_level5=1
<region>sample=../Sample/Wave87.wav lokey=97 hikey=97 pitch_keycenter=66 tune=-1804 loop_mode=one_shot pan=0 eg2_cutoff=4864 eg2_sustain=4 eg2_time1=0 eg2_time2=0 eg2_time3=0.0489896 eg2_time4=0 eg2_time5=0 eg2_level1=0 eg2_level2=1 eg2_level3=0.9055118 eg2_level4=0.9055118 eg2_level5=1 eg3_amplitude=100 eg3_sustain=4 eg3_time1=0 eg3_time2=0 eg3_time3=0.0103584 eg3_time4=0.0665094 eg3_time5=0.0665094 eg3_level1=0 eg3_level2=1 eg3_level3=0.9117225 eg3_level4=0 eg3_level5=0 amplitude_cc16=83.4645669 ampeg_attack=0 ampeg_release=0.0665094 eg4_time1=0 eg4_time2=0 eg4_time3=0.0103584 eg4_time4=0.0665094 eg4_time5=0.0665094 eg4_level1=1 eg4_level2=1 eg4_level3=1 eg4_level4=1 eg4_level5=1
<region>sample=../Sample/Wave87.wav lokey=98 hikey=98 pitch_keycenter=66 tune=-1854 loop_mode=one_shot pan=0 eg2_cutoff=4864 eg2_sustain=4 eg2_time1=0 eg2_time2=0 eg2_time3=0.0489896 eg2_time4=0 eg2_time5=0 eg2_level1=0 eg2_level2=1 eg2_level3=0.9055118 eg2_level4=0.9055118 eg2_level5=1 eg3_amplitude=100 eg3_sustain=4 eg3_time1=0 eg3_time2=0 eg3_time3=0.0101319 eg3_time4=0.065055 eg3_time5=0.065055 eg3_level1=0 eg3_level2=1 eg3_level3=0.9117225 eg3_level4=0 eg3_level5=0 amplitude_cc16=83.4645669 ampeg_attack=0 ampeg_release=0.065055 eg4_time1=0 eg4_time2=0 eg4_time3=0.0101319 eg4_time4=0.065055 eg4_time5=0.065055 eg4_level1=1 eg4_level2=1 eg4_level3=1 eg4_level4=1 eg4_level5=1
<region>sample=../Sample/Wave87.wav lokey=99 hikey=99 pitch_keycenter=66 tune=-1904 loop_mode=one_shot pan=0 eg2_cutoff=4864 eg2_sustain=4 eg2_time1=0 eg2_time2=0 eg2_time3=0.0489896 eg2_time4=0 eg2_time5=0 eg2_level1=0 eg2_level2=1 eg2_level3=0.9055118 eg2_level4=0.9055118 eg2_level5=1 eg3_amplitude=100 eg3_sustain=4 eg3_time1=0 eg3_time2=0 eg3_time3=0.0099104 eg3_time4=0.0636325 eg3_time5=0.0636325 eg3_level1=0 eg3_level2=1 eg3_level3=0.9117225 eg3_level4=0 eg3_level5=0 amplitude_cc16=83.4645669 ampeg_attack=0 ampeg_release=0.0636325 eg4_time1=0 eg4_time2=0 eg4_time3=0.0099104 eg4_time4=0.0636325 eg4_time5=0.0636325 eg4_level1=1 eg4_level2=1 eg4_level3=1 eg4_level4=1 eg4_level5=1
<region>sample=../Sample/Wave87.wav lokey=100 hikey=100 pitch_keycenter=66 tune=-1954 loop_mode=one_shot pan=0 eg2_cutoff=4864 eg2_sustain=4 eg2_time1=0 eg2_time2=0 eg2_time3=0.0489896 eg2_time4=0 eg2_time5=0 eg2_level1=0 eg2_level2=1 eg2_level3=0.9055118 eg2_level4=0.9055118 eg2_level5=1 eg3_amplitude=100 eg3_sustain=4 eg3_time1=0 eg3_time2=0 eg3_time3=0.0096937 eg3_time4=0.062241 eg3_time5=0.062241 eg3_level1=0 eg3_level2=1 eg3_level3=0.9117225 eg3_level4=0 eg3_level5=0 amplitude_cc16=83.4645669 ampeg_attack=0 ampeg_release=0.062241 eg4_time1=0 eg4_time2=0 eg4_time3=0.0096937 eg4_time4=0.062241 eg4_time5=0.062241 eg4_level1=1 eg4_level2=1 eg4_level3=1 eg4_level4=1 eg4_level5=1
<region>sample=../Sample/Wave87.wav lokey=101 hikey=101 pitch_keycenter=66 tune=-2004 loop_mode=one_shot pan=0 eg2_cutoff=4864 eg2_sustain=4 eg2_time1=0 eg2_time2=0 eg2_time3=0.0489896 eg2_time4=0 eg2_time5=0 eg2_level1=0 eg2_level2=1 eg2_level3=0.9055118 eg2_level4=0.9055118 eg2_level5=1 eg3_amplitude=100 eg3_sustain=4 eg3_time1=0 eg3_time2=0 eg3_time3=0.0094817 eg3_time4=0.06088 eg3_time5=0.06088 eg3_level1=0 eg3_level2=1 eg3_level3=0.9117225 eg3_level4=0 eg3_level5=0 amplitude_cc16=83.4645669 ampeg_attack=0 ampeg_release=0.06088 eg4_time1=0 eg4_time2=0 eg4_time3=0.0094817 eg4_time4=0.06088 eg4_time5=0.06088 eg4_level1=1 eg4_level2=1 eg4_level3=1 eg4_level4=1 eg4_level5=1
<region>sample=../Sample/Wave87.wav lokey=102 hikey=102 pitch_keycenter=66 tune=-2054 loop_mode=one_shot pan=0 eg2_cutoff=4864 eg2_sustain=4 eg2_time1=0 eg2_time2=0 eg2_time3=0.0489896 eg2_time4=0 eg2_time5=0 eg2_level1=0 eg2_level2=1 eg2_level3=0.9055118 eg2_level4=0.9055118 eg2_level5=1 eg3_amplitude=100 eg3_sustain=4 eg3_time1=0 eg3_time2=0 eg3_time3=0.0092744 eg3_time4=0.0595488 eg3_time5=0.0595488 eg3_level1=0 eg3_level2=1 eg3_level3=0.9117225 eg3_level4=0 eg3_level5=0 amplitude_cc16=83.4645669 ampeg_attack=0 ampeg_release=0.0595488 eg4_time1=0 eg4_time2=0 eg4_time3=0.0092744 eg4_time4=0.0595488 eg4_time5=0.0595488 eg4_level1=1 eg4_level2=1 eg4_level3=1 eg4_level4=1 eg4_level5=1
<region>sample=../Sample/Wave87.wav lokey=103 hikey=103 pitch_keycenter=66 tune=-2104 loop_mode=one_shot pan=0 eg2_cutoff=4864 eg2_sustain=4 eg2_time1=0 eg2_time2=0 eg2_time3=0.0489896 eg2_time4=0 eg2_time5=0 eg2_level1=0 eg2_level2=1 eg2_level3=0.9055118 eg2_level4=0.9055118 eg2_level5=1 eg3_amplitude=100 eg3_sustain=4 eg3_time1=0 eg3_time2=0 eg3_time3=0.0090716 eg3_time4=0.0582466 eg3_time5=0.0582466 eg3_level1=0 eg3_level2=1 eg3_level3=0.9117225 eg3_level4=0 eg3_level5=0 amplitude_cc16=83.4645669 ampeg_attack=0 ampeg_release=0.0582466 eg4_time1=0 eg4_time2=0 eg4_time3=0.0090716 eg4_time4=0.0582466 eg4_time5=0.0582466 eg4_level1=1 eg4_level2=1 eg4_level3=1 eg4_level4=1 eg4_level5=1
<region>sample=../Sample/Wave87.wav lokey=104 hikey=104 pitch_keycenter=66 tune=-2154 loop_mode=one_shot pan=0 eg2_cutoff=4864 eg2_sustain=4 eg2_time1=0 eg2_time2=0 eg2_time3=0.0489896 eg2_time4=0 eg2_time5=0 eg2_level1=0 eg2_level2=1 eg2_level3=0.9055118 eg2_level4=0.9055118 eg2_level5=1 eg3_amplitude=100 eg3_sustain=4 eg3_time1=0 eg3_time2=0 eg3_time3=0.0088732 eg3_time4=0.0569729 eg3_time5=0.0569729 eg3_level1=0 eg3_level2=1 eg3_level3=0.9117225 eg3_level4=0 eg3_level5=0 amplitude_cc16=83.4645669 ampeg_attack=0 ampeg_release=0.0569729 eg4_time1=0 eg4_time2=0 eg4_time3=0.0088732 eg4_time4=0.0569729 eg4_time5=0.0569729 eg4_level1=1 eg4_level2=1 eg4_level3=1 eg4_level4=1 eg4_level5=1
<region>sample=../Sample/Wave87.wav lokey=105 hikey=105 pitch_keycenter=66 tune=-2204 loop_mode=one_shot pan=0 eg2_cutoff=4864 eg2_sustain=4 eg2_time1=0 eg2_time2=0 eg2_time3=0.0489896 eg2_time4=0 eg2_time5=0 eg2_level1=0 eg2_level2=1 eg2_level3=0.9055118 eg2_level4=0.9055118 eg2_level5=1 eg3_amplitude=100 eg3_sustain=4 eg3_time1=0 eg3_time2=0 eg3_time3=0.0086792 eg3_time4=0.0557271 eg3_time5=0.0557271 eg3_level1=0 eg3_level2=1 eg3_level3=0.9117225 eg3_level4=0 eg3_level5=0 amplitude_cc16=83.4645669 ampeg_attack=0 ampeg_release=0.0557271 eg4_time1=0 eg4_time2=0 eg4_time3=0.0086792 eg4_time4=0.0557271 eg4_time5=0.0557271 eg4_level1=1 eg4_level2=1 eg4_level3=1 eg4_level4=1 eg4_level5=1
<region>sample=../Sample/Wave87.wav lokey=106 hikey=106 pitch_keycenter=66 tune=-2254 loop_mode=one_shot pan=0 eg2_cutoff=4864 eg2_sustain=4 eg2_time1=0 eg2_time2=0 eg2_time3=0.0489896 eg2_time4=0 eg2_time5=0 eg2_level1=0 eg2_level2=1 eg2_level3=0.9055118 eg2_level4=0.9055118 eg2_level5=1 eg3_amplitude=100 eg3_sustain=4 eg3_time1=0 eg3_time2=0 eg3_time3=0.0084894 eg3_time4=0.0545085 eg3_time5=0.0545085 eg3_level1=0 eg3_level2=1 eg3_level3=0.9117225 eg3_level4=0 eg3_level5=0 amplitude_cc16=83.4645669 ampeg_attack=0 ampeg_release=0.0545085 eg4_time1=0 eg4_time2=0 eg4_time3=0.0084894 eg4_time4=0.0545085 eg4_time5=0.0545085 eg4_level1=1 eg4_level2=1 eg4_level3=1 eg4_level4=1 eg4_level5=1
<region>sample=../Sample/Wave87.wav lokey=107 hikey=107 pitch_keycenter=66 tune=-2304 loop_mode=one_shot pan=0 eg2_cutoff=4864 eg2_sustain=4 eg2_time1=0 eg2_time2=0 eg2_time3=0.0489896 eg2_time4=0 eg2_time5=0 eg2_level1=0 eg2_level2=1 eg2_level3=0.9055118 eg2_level4=0.9055118 eg2_level5=1 eg3_amplitude=100 eg3_sustain=4 eg3_time1=0 eg3_time2=0 eg3_time3=0.0083037 eg3_time4=0.0533166 eg3_time5=0.0533166 eg3_level1=0 eg3_level2=1 eg3_level3=0.9117225 eg3_level4=0 eg3_level5=0 amplitude_cc16=83.4645669 ampeg_attack=0 ampeg_release=0.0533166 eg4_time1=0 eg4_time2=0 eg4_time3=0.0083037 eg4_time4=0.0533166 eg4_time5=0.0533166 eg4_level1=1 eg4_level2=1 eg4_level3=1 eg4_level4=1 eg4_level5=1
<region>sample=../Sample/Wave87.wav lokey=108 hikey=108 pitch_keycenter=66 tune=-2354 loop_mode=one_shot pan=0 eg2_cutoff=4864 eg2_sustain=4 eg2_time1=0 eg2_time2=0 eg2_time3=0.0489896 eg2_time4=0 eg2_time5=0 eg2_level1=0 eg2_level2=1 eg2_level3=0.9055118 eg2_level4=0.9055118 eg2_level5=1 eg3_amplitude=100 eg3_sustain=4 eg3_time1=0 eg3_time2=0 eg3_time3=0.0081222 eg3_time4=0.0521507 eg3_time5=0.0521507 eg3_level1=0 eg3_level2=1 eg3_level3=0.9117225 eg3_level4=0 eg3_level5=0 amplitude_cc16=83.4645669 ampeg_attack=0 ampeg_release=0.0521507 eg4_time1=0 eg4_time2=0 eg4_time3=0.0081222 eg4_time4=0.0521507 eg4_time5=0.0521507 eg4_level1=1 eg4_level2=1 eg4_level3=1 eg4_level4=1 eg4_level5=1
<region>sample=../Sample/Wave87.wav lokey=109 hikey=109 pitch_keycenter=66 tune=-2404 loop_mode=one_shot pan=0 eg2_cutoff=4864 eg2_sustain=4 eg2_time1=0 eg2_time2=0 eg2_time3=0.0489896 eg2_time4=0 eg2_time5=0 eg2_level1=0 eg2_level2=1 eg2_level3=0.9055118 eg2_level4=0.9055118 eg2_level5=1 eg3_amplitude=100 eg3_sustain=4 eg3_time1=0 eg3_time2=0 eg3_time3=0.0079446 eg3_time4=0.0510104 eg3_time5=0.0510104 eg3_level1=0 eg3_level2=1 eg3_level3=0.9117225 eg3_level4=0 eg3_level5=0 amplitude_cc16=83.4645669 ampeg_attack=0 ampeg_release=0.0510104 eg4_time1=0 eg4_time2=0 eg4_time3=0.0079446 eg4_time4=0.0510104 eg4_time5=0.0510104 eg4_level1=1 eg4_level2=1 eg4_level3=1 eg4_level4=1 eg4_level5=1
<region>sample=../Sample/Wave87.wav lokey=110 hikey=110 pitch_keycenter=66 tune=-2454 loop_mode=one_shot pan=0 eg2_cutoff=4864 eg2_sustain=4 eg2_time1=0 eg2_time2=0 eg2_time3=0.0489896 eg2_time4=0 eg2_time5=0 eg2_level1=0 eg2_level2=1 eg2_level3=0.9055118 eg2_level4=0.9055118 eg2_level5=1 eg3_amplitude=100 eg3_sustain=4 eg3_time1=0 eg3_time2=0 eg3_time3=0.0077708 eg3_time4=0.0498949 eg3_time5=0.0498949 eg3_level1=0 eg3_level2=1 eg3_level3=0.9117225 eg3_level4=0 eg3_level5=0 amplitude_cc16=83.4645669 ampeg_attack=0 ampeg_release=0.0498949 eg4_time1=0 eg4_time2=0 eg4_time3=0.0077708 eg4_time4=0.0498949 eg4_time5=0.0498949 eg4_level1=1 eg4_level2=1 eg4_level3=1 eg4_level4=1 eg4_level5=1
<region>sample=../Sample/Wave87.wav lokey=111 hikey=111 pitch_keycenter=66 tune=-2504 loop_mode=one_shot pan=0 eg2_cutoff=4864 eg2_sustain=4 eg2_time1=0 eg2_time2=0 eg2_time3=0.0489896 eg2_time4=0 eg2_time5=0 eg2_level1=0 eg2_level2=1 eg2_level3=0.9055118 eg2_level4=0.9055118 eg2_level5=1 eg3_amplitude=100 eg3_sustain=4 eg3_time1=0 eg3_time2=0 eg3_time3=0.0076009 eg3_time4=0.0488039 eg3_time5=0.0488039 eg3_level1=0 eg3_level2=1 eg3_level3=0.9117225 eg3_level4=0 eg3_level5=0 amplitude_cc16=83.4645669 ampeg_attack=0 ampeg_release=0.0488039 eg4_time1=0 eg4_time2=0 eg4_time3=0.0076009 eg4_time4=0.0488039 eg4_time5=0.0488039 eg4_level1=1 eg4_level2=1 eg4_level3=1 eg4_level4=1 eg4_level5=1
<region>sample=../Sample/Wave87.wav lokey=112 hikey=112 pitch_keycenter=66 tune=-2554 loop_mode=one_shot pan=0 eg2_cutoff=4864 eg2_sustain=4 eg2_time1=0 eg2_time2=0 eg2_time3=0.0489896 eg2_time4=0 eg2_time5=0 eg2_level1=0 eg2_level2=1 eg2_level3=0.9055118 eg2_level4=0.9055118 eg2_level5=1 eg3_amplitude=100 eg3_sustain=4 eg3_time1=0 eg3_time2=0 eg3_time3=0.0074347 eg3_time4=0.0477367 eg3_time5=0.0477367 eg3_level1=0 eg3_level2=1 eg3_level3=0.9117225 eg3_level4=0 eg3_level5=0 amplitude_cc16=83.4645669 ampeg_attack=0 ampeg_release=0.0477367 eg4_time1=0 eg4_time2=0 eg4_time3=0.0074347 eg4_time4=0.0477367 eg4_time5=0.0477367 eg4_level1=1 eg4_level2=1 eg4_level3=1 eg4_level4=1 eg4_level5=1
<region>sample=../Sample/Wave87.wav lokey=113 hikey=113 pitch_keycenter=66 tune=-2604 loop_mode=one_shot pan=0 eg2_cutoff=4864 eg2_sustain=4 eg2_time1=0 eg2_time2=0 eg2_time3=0.0489896 eg2_time4=0 eg2_time5=0 eg2_level1=0 eg2_level2=1 eg2_level3=0.9055118 eg2_level4=0.9055118 eg2_level5=1 eg3_amplitude=100 eg3_sustain=4 eg3_time1=0 eg3_time2=0 eg3_time3=0.0072721 eg3_time4=0.0466928 eg3_time5=0.0466928 eg3_level1=0 eg3_level2=1 eg3_level3=0.9117225 eg3_level4=0 eg3_level5=0 amplitude_cc16=83.4645669 ampeg_attack=0 ampeg_release=0.0466928 eg4_time1=0 eg4_time2=0 eg4_time3=0.0072721 eg4_time4=0.0466928 eg4_time5=0.0466928 eg4_level1=1 eg4_level2=1 eg4_level3=1 eg4_level4=1 eg4_level5=1
<region>sample=../Sample/Wave87.wav lokey=114 hikey=114 pitch_keycenter=66 tune=-2654 loop_mode=one_shot pan=0 eg2_cutoff=4864 eg2_sustain=4 eg2_time1=0 eg2_time2=0 eg2_time3=0.0489896 eg2_time4=0 eg2_time5=0 eg2_level1=0 eg2_level2=1 eg2_level3=0.9055118 eg2_level4=0.9055118 eg2_level5=1 eg3_amplitude=100 eg3_sustain=4 eg3_time1=0 eg3_time2=0 eg3_time3=0.0071131 eg3_time4=0.0456718 eg3_time5=0.0456718 eg3_level1=0 eg3_level2=1 eg3_level3=0.9117225 eg3_level4=0 eg3_level5=0 amplitude_cc16=83.4645669 ampeg_attack=0 ampeg_release=0.0456718 eg4_time1=0 eg4_time2=0 eg4_time3=0.0071131 eg4_time4=0.0456718 eg4_time5=0.0456718 eg4_level1=1 eg4_level2=1 eg4_level3=1 eg4_level4=1 eg4_level5=1
<region>sample=../Sample/Wave87.wav lokey=115 hikey=115 pitch_keycenter=66 tune=-2704 loop_mode=one_shot pan=0 eg2_cutoff=4864 eg2_sustain=4 eg2_time1=0 eg2_time2=0 eg2_time3=0.0489896 eg2_time4=0 eg2_time5=0 eg2_level1=0 eg2_level2=1 eg2_level3=0.9055118 eg2_level4=0.9055118 eg2_level5=1 eg3_amplitude=100 eg3_sustain=4 eg3_time1=0 eg3_time2=0 eg3_time3=0.0069576 eg3_time4=0.0446731 eg3_time5=0.0446731 eg3_level1=0 eg3_level2=1 eg3_level3=0.9117225 eg3_level4=0 eg3_level5=0 amplitude_cc16=83.4645669 ampeg_attack=0 ampeg_release=0.0446731 eg4_time1=0 eg4_time2=0 eg4_time3=0.0069576 eg4_time4=0.0446731 eg4_time5=0.0446731 eg4_level1=1 eg4_level2=1 eg4_level3=1 eg4_level4=1 eg4_level5=1
<region>sample=../Sample/Wave87.wav lokey=116 hikey=116 pitch_keycenter=66 tune=-2754 loop_mode=one_shot pan=0 eg2_cutoff=4864 eg2_sustain=4 eg2_time1=0 eg2_time2=0 eg2_time3=0.0489896 eg2_time4=0 eg2_time5=0 eg2_level1=0 eg2_level2=1 eg2_level3=0.9055118 eg2_level4=0.9055118 eg2_level5=1 eg3_amplitude=100 eg3_sustain=4 eg3_time1=0 eg3_time2=0 eg3_time3=0.0068054 eg3_time4=0.0436963 eg3_time5=0.0436963 eg3_level1=0 eg3_level2=1 eg3_level3=0.9117225 eg3_level4=0 eg3_level5=0 amplitude_cc16=83.4645669 ampeg_attack=0 ampeg_release=0.0436963 eg4_time1=0 eg4_time2=0 eg4_time3=0.0068054 eg4_time4=0.0436963 eg4_time5=0.0436963 eg4_level1=1 eg4_level2=1 eg4_level3=1 eg4_level4=1 eg4_level5=1
<region>sample=../Sample/Wave87.wav lokey=117 hikey=117 pitch_keycenter=66 tune=-2804 loop_mode=one_shot pan=0 eg2_cutoff=4864 eg2_sustain=4 eg2_time1=0 eg2_time2=0 eg2_time3=0.0489896 eg2_time4=0 eg2_time5=0 eg2_level1=0 eg2_level2=1 eg2_level3=0.9055118 eg2_level4=0.9055118 eg2_level5=1 eg3_amplitude=100 eg3_sustain=4 eg3_time1=0 eg3_time2=0 eg3_time3=0.0066566 eg3_time4=0.0427408 eg3_time5=0.0427408 eg3_level1=0 eg3_level2=1 eg3_level3=0.9117225 eg3_level4=0 eg3_level5=0 amplitude_cc16=83.4645669 ampeg_attack=0 ampeg_release=0.0427408 eg4_time1=0 eg4_time2=0 eg4_time3=0.0066566 eg4_time4=0.0427408 eg4_time5=0.0427408 eg4_level1=1 eg4_level2=1 eg4_level3=1 eg4_level4=1 eg4_level5=1
<region>sample=../Sample/Wave87.wav lokey=118 hikey=118 pitch_keycenter=66 tune=-2854 loop_mode=one_shot pan=0 eg2_cutoff=4864 eg2_sustain=4 eg2_time1=0 eg2_time2=0 eg2_time3=0.0489896 eg2_time4=0 eg2_time5=0 eg2_level1=0 eg2_level2=1 eg2_level3=0.9055118 eg2_level4=0.9055118 eg2_level5=1 eg3_amplitude=100 eg3_sustain=4 eg3_time1=0 eg3_time2=0 eg3_time3=0.0065111 eg3_time4=0.0418061 eg3_time5=0.0418061 eg3_level1=0 eg3_level2=1 eg3_level3=0.9117225 eg3_level4=0 eg3_level5=0 amplitude_cc16=83.4645669 ampeg_attack=0 ampeg_release=0.0418061 eg4_time1=0 eg4_time2=0 eg4_time3=0.0065111 eg4_time4=0.0418061 eg4_time5=0.0418061 eg4_level1=1 eg4_level2=1 eg4_level3=1 eg4_level4=1 eg4_level5=1
<region>sample=../Sample/Wave87.wav lokey=119 hikey=119 pitch_keycenter=66 tune=-2904 loop_mode=one_shot pan=0 eg2_cutoff=4864 eg2_sustain=4 eg2_time1=0 eg2_time2=0 eg2_time3=0.0489896 eg2_time4=0 eg2_time5=0 eg2_level1=0 eg2_level2=1 eg2_level3=0.9055118 eg2_level4=0.9055118 eg2_level5=1 eg3_amplitude=100 eg3_sustain=4 eg3_time1=0 eg3_time2=0 eg3_time3=0.0063687 eg3_time4=0.040892 eg3_time5=0.040892 eg3_level1=0 eg3_level2=1 eg3_level3=0.9117225 eg3_level4=0 eg3_level5=0 amplitude_cc16=83.4645669 ampeg_attack=0 ampeg_release=0.040892 eg4_time1=0 eg4_time2=0 eg4_time3=0.0063687 eg4_time4=0.040892 eg4_time5=0.040892 eg4_level1=1 eg4_level2=1 eg4_level3=1 eg4_level4=1 eg4_level5=1
<region>sample=../Sample/Wave87.wav lokey=120 hikey=120 pitch_keycenter=66 tune=-2954 loop_mode=one_shot pan=0 eg2_cutoff=4864 eg2_sustain=4 eg2_time1=0 eg2_time2=0 eg2_time3=0.0489896 eg2_time4=0 eg2_time5=0 eg2_level1=0 eg2_level2=1 eg2_level3=0.9055118 eg2_level4=0.9055118 eg2_level5=1 eg3_amplitude=100 eg3_sustain=4 eg3_time1=0 eg3_time2=0 eg3_time3=0.0062294 eg3_time4=0.0399978 eg3_time5=0.0399978 eg3_level1=0 eg3_level2=1 eg3_level3=0.9117225 eg3_level4=0 eg3_level5=0 amplitude_cc16=83.4645669 ampeg_attack=0 ampeg_release=0.0399978 eg4_time1=0 eg4_time2=0 eg4_time3=0.0062294 eg4_time4=0.0399978 eg4_time5=0.0399978 eg4_level1=1 eg4_level2=1 eg4_level3=1 eg4_level4=1 eg4_level5=1
<region>sample=../Sample/Wave87.wav lokey=121 hikey=121 pitch_keycenter=66 tune=-3004 loop_mode=one_shot pan=0 eg2_cutoff=4864 eg2_sustain=4 eg2_time1=0 eg2_time2=0 eg2_time3=0.0489896 eg2_time4=0 eg2_time5=0 eg2_level1=0 eg2_level2=1 eg2_level3=0.9055118 eg2_level4=0.9055118 eg2_level5=1 eg3_amplitude=100 eg3_sustain=4 eg3_time1=0 eg3_time2=0 eg3_time3=0.0060932 eg3_time4=0.0391232 eg3_time5=0.0391232 eg3_level1=0 eg3_level2=1 eg3_level3=0.9117225 eg3_level4=0 eg3_level5=0 amplitude_cc16=83.4645669 ampeg_attack=0 ampeg_release=0.0391232 eg4_time1=0 eg4_time2=0 eg4_time3=0.0060932 eg4_time4=0.0391232 eg4_time5=0.0391232 eg4_level1=1 eg4_level2=1 eg4_level3=1 eg4_level4=1 eg4_level5=1
<region>sample=../Sample/Wave87.wav lokey=122 hikey=122 pitch_keycenter=66 tune=-3054 loop_mode=one_shot pan=0 eg2_cutoff=4864 eg2_sustain=4 eg2_time1=0 eg2_time2=0 eg2_time3=0.0489896 eg2_time4=0 eg2_time5=0 eg2_level1=0 eg2_level2=1 eg2_level3=0.9055118 eg2_level4=0.9055118 eg2_level5=1 eg3_amplitude=100 eg3_sustain=4 eg3_time1=0 eg3_time2=0 eg3_time3=0.00596 eg3_time4=0.0382677 eg3_time5=0.0382677 eg3_level1=0 eg3_level2=1 eg3_level3=0.9117225 eg3_level4=0 eg3_level5=0 amplitude_cc16=83.4645669 ampeg_attack=0 ampeg_release=0.0382677 eg4_time1=0 eg4_time2=0 eg4_time3=0.00596 eg4_time4=0.0382677 eg4_time5=0.0382677 eg4_level1=1 eg4_level2=1 eg4_level3=1 eg4_level4=1 eg4_level5=1
<region>sample=../Sample/Wave87.wav lokey=123 hikey=123 pitch_keycenter=66 tune=-3104 loop_mode=one_shot pan=0 eg2_cutoff=4864 eg2_sustain=4 eg2_time1=0 eg2_time2=0 eg2_time3=0.0489896 eg2_time4=0 eg2_time5=0 eg2_level1=0 eg2_level2=1 eg2_level3=0.9055118 eg2_level4=0.9055118 eg2_level5=1 eg3_amplitude=100 eg3_sustain=4 eg3_time1=0 eg3_time2=0 eg3_time3=0.0058296 eg3_time4=0.0374309 eg3_time5=0.0374309 eg3_level1=0 eg3_level2=1 eg3_level3=0.9117225 eg3_level4=0 eg3_level5=0 amplitude_cc16=83.4645669 ampeg_attack=0 ampeg_release=0.0374309 eg4_time1=0 eg4_time2=0 eg4_time3=0.0058296 eg4_time4=0.0374309 eg4_time5=0.0374309 eg4_level1=1 eg4_level2=1 eg4_level3=1 eg4_level4=1 eg4_level5=1
<region>sample=../Sample/Wave87.wav lokey=124 hikey=124 pitch_keycenter=66 tune=-3154 loop_mode=one_shot pan=0 eg2_cutoff=4864 eg2_sustain=4 eg2_time1=0 eg2_time2=0 eg2_time3=0.0489896 eg2_time4=0 eg2_time5=0 eg2_level1=0 eg2_level2=1 eg2_level3=0.9055118 eg2_level4=0.9055118 eg2_level5=1 eg3_amplitude=100 eg3_sustain=4 eg3_time1=0 eg3_time2=0 eg3_time3=0.0057022 eg3_time4=0.0366124 eg3_time5=0.0366124 eg3_level1=0 eg3_level2=1 eg3_level3=0.9117225 eg3_level4=0 eg3_level5=0 amplitude_cc16=83.4645669 ampeg_attack=0 ampeg_release=0.0366124 eg4_time1=0 eg4_time2=0 eg4_time3=0.0057022 eg4_time4=0.0366124 eg4_time5=0.0366124 eg4_level1=1 eg4_level2=1 eg4_level3=1 eg4_level4=1 eg4_level5=1
<region>sample=../Sample/Wave87.wav lokey=125 hikey=125 pitch_keycenter=66 tune=-3204 loop_mode=one_shot pan=0 eg2_cutoff=4864 eg2_sustain=4 eg2_time1=0 eg2_time2=0 eg2_time3=0.0489896 eg2_time4=0 eg2_time5=0 eg2_level1=0 eg2_level2=1 eg2_level3=0.9055118 eg2_level4=0.9055118 eg2_level5=1 eg3_amplitude=100 eg3_sustain=4 eg3_time1=0 eg3_time2=0 eg3_time3=0.0055775 eg3_time4=0.0358118 eg3_time5=0.0358118 eg3_level1=0 eg3_level2=1 eg3_level3=0.9117225 eg3_level4=0 eg3_level5=0 amplitude_cc16=83.4645669 ampeg_attack=0 ampeg_release=0.0358118 eg4_time1=0 eg4_time2=0 eg4_time3=0.0055775 eg4_time4=0.0358118 eg4_time5=0.0358118 eg4_level1=1 eg4_level2=1 eg4_level3=1 eg4_level4=1 eg4_level5=1
<region>sample=../Sample/Wave87.wav lokey=126 hikey=126 pitch_keycenter=66 tune=-3254 loop_mode=one_shot pan=0 eg2_cutoff=4864 eg2_sustain=4 eg2_time1=0 eg2_time2=0 eg2_time3=0.0489896 eg2_time4=0 eg2_time5=0 eg2_level1=0 eg2_level2=1 eg2_level3=0.9055118 eg2_level4=0.9055118 eg2_level5=1 eg3_amplitude=100 eg3_sustain=4 eg3_time1=0 eg3_time2=0 eg3_time3=0.0054555 eg3_time4=0.0350287 eg3_time5=0.0350287 eg3_level1=0 eg3_level2=1 eg3_level3=0.9117225 eg3_level4=0 eg3_level5=0 amplitude_cc16=83.4645669 ampeg_attack=0 ampeg_release=0.0350287 eg4_time1=0 eg4_time2=0 eg4_time3=0.0054555 eg4_time4=0.0350287 eg4_time5=0.0350287 eg4_level1=1 eg4_level2=1 eg4_level3=1 eg4_level4=1 eg4_level5=1
<region>sample=../Sample/Wave87.wav lokey=127 hikey=127 pitch_keycenter=66 tune=-3304 loop_mode=one_shot pan=0 eg2_cutoff=4864 eg2_sustain=4 eg2_time1=0 eg2_time2=0 eg2_time3=0.0489896 eg2_time4=0 eg2_time5=0 eg2_level1=0 eg2_level2=1 eg2_level3=0.9055118 eg2_level4=0.9055118 eg2_level5=1 eg3_amplitude=100 eg3_sustain=4 eg3_time1=0 eg3_time2=0 eg3_time3=0.0053362 eg3_time4=0.0342627 eg3_time5=0.0342627 eg3_level1=0 eg3_level2=1 eg3_level3=0.9117225 eg3_level4=0 eg3_level5=0 amplitude_cc16=83.4645669 ampeg_attack=0 ampeg_release=0.0342627 eg4_time1=0 eg4_time2=0 eg4_time3=0.0053362 eg4_time4=0.0342627 eg4_time5=0.0342627 eg4_level1=1 eg4_level2=1 eg4_level3=1 eg4_level4=1 eg4_level5=1
<curve>curve_index=77 v000=-1 v009=-0.2318432 v017=-0.1682223 v025=-0.1266754 v033=-0.0943052 v041=-0.0667365 v049=-0.0418818 v057=-0.0185085 v065=0.004257 v073=0.0271599 v081=0.0509737 v089=0.0766712 v097=0.1057219 v105=0.1408034 v113=0.1881379 v121=0.2706334 v127=1
<curve>curve_index=133 v000=-0.4724409 v127=0.5275591
<curve>curve_index=201 v000=-1 v127=0
<curve>curve_index=202 v000=-1 v001=-0.9997494 v009=-0.991513 v017=-0.9762171 v025=-0.9551519 v033=-0.92858 v041=-0.8964065 v049=-0.8583211 v057=-0.8138437 v065=-0.7623383 v073=-0.7030102 v081=-0.6348936 v089=-0.5568321 v097=-0.467451 v105=-0.3651233 v113=-0.2479268 v121=-0.1135922 v127=0
<curve>curve_index=203 v000=-1 v001=-1 v009=-0.9999675 v017=-0.9996583 v025=-0.9985752 v033=-0.9960114 v041=-0.9910577 v049=-0.9825829 v057=-0.9691807 v065=-0.9490722 v073=-0.9199401 v081=-0.8786619 v089=-0.82088 v097=-0.740303 v105=-0.6275479 v113=-0.4681713 v121=-0.2392198 v127=0
<curve>curve_index=204 v000=-1 v001=-0.9323558 v009=-0.741349 v017=-0.6263141 v025=-0.5373342 v033=-0.4635977 v041=-0.4002693 v049=-0.3446331 v057=-0.2949675 v065=-0.2500953 v073=-0.2091682 v081=-0.1715511 v089=-0.1367543 v097=-0.1043909 v105=-0.0741496 v113=-0.0457759 v121=-0.0190586 v127=0
<curve>curve_index=205 v000=-1 v001=-0.6880006 v009=-0.4427647 v017=-0.3466618 v025=-0.2834429 v033=-0.2361238 v041=-0.1983568 v049=-0.1670059 v057=-0.1402727 v065=-0.1170246 v073=-0.0964998 v081=-0.0781602 v089=-0.061612 v097=-0.0465575 v105=-0.0327669 v113=-0.0200585 v121=-0.0082866 v127=0
<curve>curve_index=206 v000=-1 v001=-0.9992164 v009=-0.9919382 v017=-0.9822354 v025=-0.9686809 v033=-0.9484937 v041=-0.9155493 v049=-0.8540328 v057=-0.7175582 v065=-0.4426581 v073=-0.2171001 v081=-0.1176907 v089=-0.0699434 v097=-0.0428826 v105=-0.0256514 v113=-0.0137704 v121=-0.0051009 v127=0
<curve>curve_index=207 v000=-1 v001=-0.9416361 v009=-0.7228567 v017=-0.6420575 v025=-0.5979344 v033=-0.568666 v041=-0.5466723 v049=-0.5285483 v057=-0.5124439 v065=-0.497147 v073=-0.4816686 v081=-0.4649713 v089=-0.4456677 v097=-0.4214805 v105=-0.3879226 v113=-0.3341321 v121=-0.2242261 v127=0
